<svg viewBox="0 0 1010 60" xmlns="http://www.w3.org/2000/svg"><g fill="#0e55e5"><path d="m0 15.2h26.6v44.6h18.1v-37.2l-7-7.4h38.4v-14.9h-76.1z"/><path d="m840.6.3v59.5h66.3v-3.5l-10-10h-38.2v-5.4l-5.1-5.1h5.1 45v-1.6l-10.2-10.2h-34.8v-5l-5.1-5.1h5.1 48.2v-3.2l-10.4-10.4z"/><path d="m795.2 37.2v8l-39.9.3-.2-30.2 39.5-.3v7.5h18l-.3-12.1-10.4-10.2-55 .5-10.1 10.2.7 39.7 9.6 9.5 55.5-.5 10.4-10.6v-11.9h-17.9z"/><path d="m401.8 44.9-35.8-44.6h-18.2l-10.6 10.5v38.5l10.5 10.5h6.6v-44.7l35.7 44.7h18.4l10.5-10.6v-48.9h-17.1z"/><path d="m100 .3v59.5h18.1v-52.1l-6.8-7.4z"/><path d="m690.2.3v59.5h18.1v-52.1l-6.8-7.4z"/><path d="m1009.9 10.5-10.3-10.3-65-.2v14.9h52.7l4.3 4.5v6.2l-4.4 4.5h-52.6v29.3h18.1v-15.2h33.8l4.3 4.4v10.8l19.1.3v-15.2l-7.4-7.4 7.4-7.5z"/><path d="m486.8.4-.1-.1v14.9h49.4l4.3 4.5v6.2l-4.3 4.5h-49.3v29.3h18.1v-14.8h39.3l10.6-10.5v-23.5l-10.6-10.5z"/><path d="m584.7 0v15h52.7l4.3 4.5v6.2l-4.3 4.5h-52.7v29.3h18.1v-15.2h33.8l4.3 4.4v10.8l19.1.3v-15.2l-7.4-7.5 7.4-7.4v-19.1l-10.3-10.3z"/><path d="m143.5 15.2h26.6v44.6h18.1v-37.2l-7-7.4h38.4v-14.9h-76.1z"/><path d="m249.8.3-10.6 10.6v42.1l6.6 6.8h10.4v-14.6h41.2v14.6h10.4l6.6-6.8v-42.1l-10.6-10.6h-54zm45.3 30.1h-36.4l-4.4-4.6v-6.2l4.3-4.5h36.4l4.3 4.5v6.3l-4.3 4.5z"/></g></svg>