<?xml version="1.0" encoding="UTF-8"?>
<svg id="Layer_1" xmlns="http://www.w3.org/2000/svg" version="1.1" viewBox="0 0 589.3 231">
  <!-- Generator: Adobe Illustrator 30.3.0, SVG Export Plug-In . SVG Version: 2.1.3 Build 182)  -->
  <defs>
    <style>
      .st0 {
        fill: #e9632f;
      }
    </style>
  </defs>
  <path class="st0" d="M472.5,223.6c-1.1-.2-2.3-.4-3.4-.6-3.1-.6-6.1-1.6-8.6-3.6-2.8-2.3-4.4-5.3-5.2-8.8-.5-2-.6-4-.6-6,0-17,0-34,0-51v-1.3h-9.5c-.2-.8-.3-13.4,0-14.5h9.6v-22.6h17.6v22.5h18.1c0-1,0-2.1,0-3.1,0-1.1,0-2.2,0-3.3v-16.1h17.6v22.6h11.7v14.5c-1.9,0-3.8,0-5.8,0-1.9,0-3.9,0-5.9,0,0,.4,0,.7,0,1.1,0,9.5,0,19,0,28.5s0,12.4,0,18.6c0,.8,0,1.6.2,2.3.5,3.1,2.3,4.7,5.5,4.8,1.7,0,3.4,0,5,0,.3,0,.6,0,.9,0v14.9c-1,.4-2.1.5-3.2.7-.8.1-1.7.3-2.5.4h-5.8c-.3,0-.5-.1-.8-.2-1.9-.3-3.8-.5-5.7-1.1-5.4-1.7-9-5.3-10.5-10.8-.6-2.2-.8-4.4-.8-6.6,0-17.1,0-34.2,0-51.4v-1.2h-18.1v.9c0,15.8,0,31.5,0,47.3,0,.9,0,1.7.2,2.6.4,2.2,1.5,3.7,3.7,4.3.7.2,1.4.2,2.1.2,1.6,0,3.2,0,4.8,0,.3,0,.5,0,.9,0v15c-.7.1-1.4.3-2,.4-1.2.2-2.5.4-3.7.6h-5.8Z"/>
  <path class="st0" d="M77.5,223.6c-1-.2-2-.4-3-.5-6.7-1.1-12-4.4-16.2-9.7-3.8-4.9-6.1-10.4-7-16.5-.2-1.5-.3-3.1-.5-4.7,6.2-.9,12.4-1.8,18.6-2.7.1.9.2,1.7.3,2.5.3,2.5.9,5,1.9,7.4.7,1.6,1.6,3.1,2.9,4.4,1.6,1.7,3.6,2.6,6,2.7,2.2.1,4.3-.2,6.3-1.1,3.3-1.5,5.1-4.1,5.5-7.7.4-4.7-1-8.9-3.7-12.6-2.7-3.9-6-7.2-9.6-10.3-3.9-3.3-7.9-6.6-11.8-9.9-5.6-4.9-9.8-10.8-12.4-17.8-1.5-4.2-2-8.5-1.9-12.9.1-3.3.6-6.6,1.7-9.8,2.6-7.5,7.9-12.5,15.4-15.1,3.6-1.2,7.2-1.8,11-1.9,2.6,0,5.2,0,7.8.5,6.4,1.2,11.4,4.6,15.2,9.9,2.7,3.8,4.4,8.1,5.3,12.6.3,1.4.5,2.9.8,4.4-6.2.7-12.3,1.4-18.5,2-.1-.9-.2-1.7-.3-2.4-.2-1.5-.6-3.1-1.3-4.5-1.8-3.6-4.7-5.5-8.8-5.6-1,0-2,0-3,.3-2.9.7-4.9,2.5-5.9,5.3-1.3,4.2-1.1,8.3,1,12.3,1.2,2.3,2.8,4.3,4.5,6.2,2.6,2.9,5.4,5.5,8.4,8,3.7,3.1,7.4,6.3,11,9.6,4.4,4,7.8,8.7,10.4,14,2.7,5.3,3.7,11,3.3,16.9-.2,3.2-.7,6.3-1.8,9.3-2.6,7.1-7.6,11.8-14.5,14.7-2.9,1.2-6,1.9-9.2,2.3-.7,0-1.5.2-2.2.4h-5.4Z"/>
  <path class="st0" d="M413.6,223.6c-.8-.1-1.5-.3-2.3-.4-5.3-.7-10.1-2.4-14-6.2-2.8-2.7-4.7-6-5.9-9.7-1.1-3.2-1.7-6.4-1.9-9.8-.1-2.2-.2-4.4-.2-6.6,0-8.6,0-17.1,0-25.7,0-4.9.8-9.7,2.6-14.3,3.1-7.7,8.7-12.3,16.8-14,5.7-1.1,11.3-1.1,16.9.3,7.6,1.9,12.7,6.7,15.5,13.9,1.3,3.3,2,6.8,2.3,10.4.2,3.1.3,6.2.3,9.2,0,3.7,0,7.5,0,11.2v1.2h-36.9c0,.3,0,.6,0,.8,0,4,0,8.1,0,12.1,0,2.4.3,4.8,1.1,7.1.8,2.2,2,4,4.2,5,2.8,1.3,5.7,1.3,8.6,0,1.5-.7,2.6-1.9,3.5-3.3,1-1.7,1.5-3.6,1.7-5.5.2-1.5.2-3.1.3-4.7,0-.4,0-.7,0-1.1.7-.2,16.3-.3,17.5,0,0,0,0,.2,0,.2,0,4.9-.7,9.6-2.3,14.2-1.6,4.3-4,8.1-7.8,10.8-2.9,2.1-6.1,3.3-9.6,4-1.4.3-2.8.4-4.2.6-.1,0-.3,0-.4.1h-5.8ZM406.9,168.6h19.2c0-.1,0-.2,0-.3,0-2.7,0-5.4-.3-8.1-.1-1.9-.7-3.7-1.6-5.4-1.1-1.9-2.7-3.3-4.8-3.8-1.4-.4-2.8-.4-4.3-.3-2.8.3-5,1.6-6.4,4.1-.5.9-.9,1.9-1.2,2.9-1,3.6-.7,7.2-.8,10.9Z"/>
  <path class="st0" d="M535.9,223.6c-1.1-.2-2.1-.4-3.2-.7-6-1.5-9.7-5.5-11.6-11.2-1-3-1.1-6.1-.9-9.1.2-3.8,1-7.5,2.5-11,2-4.6,5.1-8.2,8.9-11.3,3.9-3.2,8.2-5.7,12.7-8,3.9-2,8-3.8,12.1-5.4.4-.1.7-.3,1.2-.5-.1-3.3.3-6.5-.6-9.7-.2-.7-.4-1.3-.7-1.9-1.1-2.3-3-3.6-5.5-4-1.9-.3-3.9-.2-5.7.3-2,.5-3.5,1.7-4.4,3.6-.8,1.7-1.2,3.4-1.4,5.2-.1.8-.2,1.7-.3,2.5h-17.6c0-1.1.2-2.1.3-3.1.4-3.5,1.3-6.8,2.9-9.9,3.1-5.9,8-9.7,14.3-11.8,3.1-1,6.3-1.4,9.6-1.5,3.7,0,7.4.2,11,1.1,2.6.7,5.1,1.7,7.3,3.2,4.3,2.9,6.7,7.1,7.8,12.1.4,2,.6,4.1.6,6.1,0,17.3,0,34.6,0,51.9,0,3.2.3,6.3.8,9.5,0,.5.2,1.1.3,1.6v.2c-.2,0-.4,0-.7,0-5.2,0-10.3,0-15.5,0-.2,0-.4,0-.6,0-.3-2.1-.7-4.2-1-6.3-.3.2-.5.4-.7.5-1.4,1-2.8,2-4.2,2.9-3.3,2-6.8,3.4-10.6,4.1-.9.2-1.8.3-2.6.5h-4.3ZM557.6,179.4c-.3,0-.3.1-.4.1-4,2.3-7.9,4.8-11.5,7.7-2.3,1.9-4.4,3.9-5.8,6.5-1.7,3-2.5,6.3-1.9,9.8.4,2.7,2,4.5,4.6,5.2,3.3.9,6.4.4,9.2-1.4,2.1-1.4,3.7-3.2,5.2-5.1.4-.5.6-1,.6-1.7,0-6.7,0-13.3,0-20v-1Z"/>
  <path class="st0" d="M263.3,223.6c-.8-.1-1.5-.3-2.3-.4-5.3-.7-10.1-2.4-14-6.2-2.8-2.7-4.7-6-5.9-9.7-1.1-3.1-1.7-6.4-1.9-9.7-.1-2.2-.2-4.4-.2-6.6,0-8.6,0-17.2,0-25.8,0-4.9.8-9.7,2.6-14.2,3.1-7.8,8.7-12.4,16.9-14.1,3.7-.8,7.5-.9,11.3-.6,2.9.2,5.7.8,8.4,1.8,5.9,2.3,10,6.4,12.4,12.2,1.3,3.1,2,6.3,2.5,9.5.4,2.8.5,5.7.5,8.6,0,7.8,0,15.6,0,23.3,0,3.1-.1,6.3-.7,9.4-.5,3.1-1.3,6-2.6,8.8-3,6.5-8,10.7-15,12.4-1.8.4-3.6.6-5.4,1-.3,0-.5.1-.8.2h-5.8ZM275.9,179.9s0,0,0,0c0-3.5,0-7.1,0-10.6,0-2.3,0-4.7,0-7,0-2.3-.5-4.6-1.5-6.7-1-2.3-2.7-3.9-5.1-4.5-.8-.2-1.6-.4-2.5-.4-2.4,0-4.7.4-6.6,2.1-1.3,1.2-2.1,2.7-2.6,4.3-.7,2.3-1,4.7-1,7.2,0,10.2,0,20.4,0,30.6,0,1.4,0,2.9.2,4.3.2,1.9.6,3.7,1.5,5.4,1.1,2.2,2.9,3.7,5.3,4.3,1.3.3,2.6.4,3.9.2,2.8-.3,5-1.5,6.4-4,.4-.7.8-1.6,1.1-2.4.7-2,1-4,1-6.1,0-5.6,0-11.1,0-16.7Z"/>
  <path class="st0" d="M11.3,31.5c.2-1.2.4-2.3.6-3.5.9-5.4,3.3-10,7.5-13.6,2.5-2.2,5.4-3.5,8.6-4.3,4.8-1.1,9.6-1.3,14.4-.3,6.1,1.3,10.7,4.8,13.8,10.3,1.9,3.4,3.1,7,3.3,10.8.2,3.4.2,6.8.2,10.3,0,0,0,.2,0,.3h-16c0-.3,0-.6,0-.9,0-2.2,0-4.4,0-6.5,0-1.8-.2-3.6-.8-5.3-.5-1.4-1.2-2.7-2.3-3.8-1.2-1.1-2.6-1.8-4.3-1.8-1.3,0-2.5,0-3.7.4-2,.6-3.3,1.8-4.1,3.6-.6,1.4-.8,2.9-.9,4.4,0,.6,0,1.1,0,1.7,0,15.8,0,31.6,0,47.4,0,1.7.1,3.3.6,4.9.8,3,2.7,4.7,5.8,5.1,1.7.2,3.3.2,5-.2,1.8-.5,3-1.5,3.8-3.2.7-1.5,1-3.1,1-4.7,0-3.7,0-7.4,0-11.1,0-.3,0-.7,0-.9,0,0,0-.1.1-.1,0,0,0,0,0,0,.2,0,.4,0,.6,0,5,0,10,0,15,0,0,0,.2,0,.3,0,0,.3,0,.6,0,.9,0,3.4,0,6.7,0,10.1,0,4.4-.9,8.5-3,12.4-3.2,5.9-8.2,9.4-14.8,10.6-4.8.9-9.6.8-14.3-.5-8-2.1-12.9-7.4-15.2-15.2-.4-1.4-.5-2.9-.8-4.3-.1-.6-.2-1.2-.3-1.7,0-17.1,0-34.1,0-51.2Z"/>
  <path class="st0" d="M160.1,221.9h-17.5v-84.1c.7-.2,15.5-.2,16.6,0v8.2c.3-.2.5-.3.7-.5,1.6-1.3,3.2-2.6,4.7-3.9,2.5-2.2,5.4-3.5,8.5-4.4,3.2-1,6.4-1.2,9.7-.8,4.6.6,7.9,3,10.1,7.1,1.3,2.4,1.9,4.9,2.1,7.6.1,1.5.2,2.9.2,4.4,0,21.7,0,43.5,0,65.2v1.2c-.8.2-16.1.3-17.6,0,0-.4,0-.8,0-1.2,0-15,0-30.1,0-45.1,0-6.2,0-12.5,0-18.7,0-.7,0-1.4-.2-2.1-.5-2.4-2.1-3.7-4.5-4.1-1.7-.2-3.3,0-4.9.7-2.7,1.1-5.1,2.6-7.4,4.3-.3.2-.4.4-.4.8,0,.2,0,.5,0,.7,0,21.1,0,42.3,0,63.4s0,.8,0,1.3Z"/>
  <path class="st0" d="M301.7,137.8h16.5v8.3c.3-.2.5-.3.6-.4,1.7-1.4,3.4-2.8,5.1-4.2,2.9-2.4,6.3-3.8,10-4.7,2.2-.5,4.5-.7,6.8-.5,5.4.3,9.3,2.9,11.6,7.8,1.1,2.3,1.6,4.7,1.8,7.2,0,1.2.1,2.4.1,3.5,0,22,0,43.9,0,65.9s0,.9,0,1.3h-17.6c0-.3,0-.7,0-1,0-3.6,0-7.2,0-10.7,0-17.7,0-35.5,0-53.2,0-.7,0-1.4-.2-2.1-.5-2.4-2.1-3.8-4.6-4.1-1.7-.2-3.3,0-4.9.7-2.7,1.1-5,2.6-7.3,4.2-.3.2-.4.4-.4.8,0,.2,0,.5,0,.7v63.5c0,.4,0,.8,0,1.2h-17.5v-84.2Z"/>
  <path class="st0" d="M279.4,40.3c.3-.4.5-.7.8-1.1.9-1.1,1.7-2.1,2.6-3.2,1.7-2,4-2.9,6.6-3,.6,0,1.2,0,1.8,0v11.9c-3.3-.2-6.5-.1-9.1,2,.3,1.5.6,3,.9,4.4.7,3.6.6,7.2.5,10.8-.1,3-.5,6-1.2,9-.3,1.2-.7,2.3-1.1,3.5-1.9,5.3-5.7,8.6-11,10.1-2.6.8-5.2,1-7.9,1.1-1.6,0-3.2,0-4.9,0-1.8,0-3.2,1.5-3.1,3.3,0,1.1.7,1.8,1.6,2.4,1,.6,2.2.8,3.3,1,3.2.5,6.4.6,9.7.8,3.7.1,7.3.4,10.9,1.1,2.6.5,5,1.7,7,3.5,2.2,1.8,3.5,4.2,4.1,6.9.5,2.4.6,4.7.2,7.1-.6,3.4-2.3,6.1-5,8.1-2.5,1.9-5.3,3-8.3,3.8-3.3.9-6.6,1.4-10,1.5-3,.1-6,.2-9,.2-4,0-7.9-.6-11.7-1.8-1.5-.5-3-1.2-4.3-2-4.5-2.9-4.9-7.8-3.1-11.5,1.5-3.1,4.1-5.2,7.4-6.3.3-.1.6-.2,1.1-.3-.3-.2-.5-.3-.7-.4-.9-.5-1.9-1-2.7-1.6-3.2-2.5-4.1-6.9-2.4-10.6,1-2.1,2.6-3.7,4.4-5.1.8-.6,1.7-1.2,2.6-1.8.3-.2.5-.3.8-.5-.5-.4-1-.7-1.4-1.1-1.9-1.5-3.6-3.2-4.9-5.2-1.3-2-1.9-4.3-2.2-6.6-.8-5.7-.9-11.4-.5-17.1.2-3,.7-5.9,1.6-8.7,1.7-5.4,5.3-8.8,10.7-10.4,4.1-1.2,8.2-1.5,12.4-1.1,5.1.4,9.3,2.7,12.8,6.4.2.2.4.5.6.7,0,0,0,0,.2.1ZM269.1,59.5c-.1-2.2-.2-4.5-.4-6.7-.1-1.5-.4-3-.9-4.4-.5-1.4-1.4-2.4-2.8-2.9-1.6-.6-3.2-.7-4.9-.3-2.2.5-3.5,2-4.3,4-.6,1.5-.8,3.1-1,4.7-.3,3.7-.3,7.4,0,11.1.2,1.8.4,3.5,1.1,5.2.8,1.8,2,3.1,4,3.6,1.5.4,3,.3,4.5-.2,1.5-.5,2.6-1.4,3.1-2.9.3-.7.5-1.5.7-2.2.6-3,.6-6,.7-9ZM266.6,115.2c1.5,0,3.6-.2,5.7-.4,1.2-.1,2.5-.4,3.6-.9,1.1-.5,1.9-1.3,2.2-2.4.5-1.9.3-4.5-2.7-5.6-.3,0-.5-.2-.8-.2-1.4-.2-2.8-.5-4.1-.6-3.8-.3-7.5-.3-11.3.2-1.1.2-2.2.4-3.2,1-1.4.8-2.1,2-2.1,3.7,0,1.7.6,3,2.1,3.8.6.3,1.3.6,1.9.7,2.7.7,5.4.6,8.7.7Z"/>
  <path class="st0" d="M68.8,10.6h14.4v30c.3-.3.5-.4.7-.5,1.1-.9,2.2-1.8,3.2-2.7,2.3-2.1,5.2-3.2,8.2-3.9,2.3-.5,4.7-.6,7.1-.2,3.9.6,6.5,2.9,8.2,6.4,1,2.1,1.4,4.3,1.5,6.5,0,.7,0,1.4,0,2.1,0,18.1,0,36.2,0,54.3v1.2h-14.5v-1.3c0-17.2,0-34.4,0-51.7,0-.6,0-1.2,0-1.9-.2-2.2-1.7-3.6-3.8-3.8-1.4-.2-2.7,0-3.9.5-2.2.9-4.2,2.1-6.1,3.5-.2.1-.3.4-.4.7,0,.3,0,.6,0,.8,0,17.3,0,34.6,0,51.8v1.2h-14.4c-.2-.6-.3-91,0-93Z"/>
  <path class="st0" d="M225.3,221.9h-17.6v-69.7h-10.3v-14.5c3.4,0,6.8,0,10.3,0v-1c0-3.3,0-6.6,0-9.9,0-2.4.3-4.7.9-7,1.7-6.5,6-10.4,12.5-11.7,1.9-.4,3.9-.6,5.8-.6,2.7,0,5.4,0,8.1,0,.3,0,.6,0,1,0v14.4c-.3,0-.7,0-1,0-1.9,0-3.7,0-5.6.2-.5,0-1,.2-1.4.3-1.6.5-2.3,1.7-2.5,3.3-.1.6-.2,1.2-.2,1.9,0,3.2,0,6.4,0,9.5,0,.2,0,.4,0,.8h9.9v14.5c-3.3.1-6.6,0-10,0v69.7Z"/>
  <path class="st0" d="M236.1,103.6h-13.8c-.3-1.7-.6-3.4-.9-5.2-.3.2-.6.4-.8.6-3.2,2.4-6.7,4.4-10.7,5.3-3.1.7-6.2.9-9.3.2-5-1.1-8.1-4.3-9.7-9-.8-2.3-1-4.6-.9-7,.1-3.3.7-6.5,1.9-9.5,1.7-4,4.4-7.2,7.8-9.9,4-3.2,8.4-5.6,13-7.8,2.3-1.1,4.6-2,6.9-3,.3-.1.7-.3,1.1-.4,0-2.5.2-5.1-.4-7.5-.1-.6-.3-1.1-.5-1.7-.8-2-2.4-3.2-4.6-3.6-1.7-.3-3.4-.2-5.1.3-1.5.5-2.6,1.4-3.3,2.8-.8,1.6-1.1,3.2-1.3,4.9,0,.5-.1,1-.2,1.5h-14.4c0-.3,0-.5,0-.7.2-3,.8-5.9,2-8.7,2.6-5.9,7.1-9.5,13.2-11.2,3.7-1.1,7.5-1.2,11.3-.9,2.8.2,5.5.8,8.1,1.9,5.1,2.3,8.1,6.2,9.2,11.6.4,1.8.5,3.7.5,5.6,0,14.2,0,28.3,0,42.5,0,2.7.3,5.3.7,7.9,0,.3,0,.7.1,1.1ZM220.7,68.6c-.3.2-.5.2-.7.4-2.4,1.5-4.8,3-7.1,4.6-1.6,1.1-3,2.4-4.4,3.7-2.8,2.8-4.3,6.2-4.1,10.2.2,3,1.8,4.8,4.8,5.3,2.8.5,5.3-.2,7.5-1.9,1.4-1,2.5-2.3,3.5-3.7.3-.4.5-.9.5-1.5,0-5.4,0-10.9,0-16.3v-.9Z"/>
  <path class="st0" d="M293.3,68.9c0-3.7,0-7.3,0-11,0-3.8.5-7.6,1.6-11.2,1.3-3.9,3.3-7.2,6.6-9.7,2.5-1.9,5.3-3,8.4-3.5,4.3-.7,8.6-.7,12.8.3,6.9,1.6,11.4,5.8,13.7,12.5,1,2.9,1.5,5.9,1.7,9,0,1.6.1,3.2.1,4.9,0,6.5,0,13,0,19.5,0,3.2-.3,6.4-1,9.5-.5,1.9-1.1,3.8-2,5.5-2.4,4.8-6.3,8-11.5,9.3-5.3,1.4-10.6,1.4-15.9,0-6.4-1.7-10.5-5.9-12.7-12.1-1-2.8-1.6-5.7-1.7-8.6-.2-4.8-.2-9.5-.3-14.3,0,0,0,0,0,0ZM323.7,69c0-4.1,0-8.3,0-12.4,0-1.2,0-2.4-.2-3.5-.2-1.5-.5-2.9-1.2-4.3-1-1.9-2.5-3.3-4.7-3.7-1-.2-2-.2-3-.1-2.2.1-3.9,1.1-5.1,3-.4.7-.8,1.5-1,2.3-.5,1.6-.8,3.3-.8,5,0,9,0,18,0,27.1,0,.4,0,.9,0,1.3.1,1.9.4,3.8,1.3,5.5.9,1.9,2.3,3.2,4.4,3.6,1,.2,2,.3,3,.3,2.7-.1,4.7-1.4,5.9-3.8.3-.6.5-1.1.7-1.7.5-1.7.7-3.5.7-5.2,0-4.4,0-8.8,0-13.2Z"/>
  <path class="st0" d="M171.3,77.4h14.5c0,.6,0,1.2,0,1.9,0,3.6-.3,7.1-1.2,10.5-.7,2.7-1.8,5.2-3.4,7.5-2.4,3.3-5.6,5.4-9.5,6.6-5.4,1.5-10.8,1.6-16.2.1-6.2-1.7-10.3-5.6-12.5-11.6-1.1-2.9-1.7-5.9-1.9-8.9-.1-2.1-.2-4.2-.2-6.3,0-6.6,0-13.1,0-19.7,0-4.2.6-8.4,2.2-12.3,2.5-6.4,7.2-10.2,13.9-11.5,4.4-.9,8.9-.9,13.3.1,6.9,1.6,11.4,5.9,13.7,12.5,1.3,3.7,1.7,7.5,1.8,11.4,0,0,0,.2,0,.3h-14.4c0-.4,0-.8,0-1.3,0-1.9-.1-3.8-.6-5.7-.1-.5-.3-1-.5-1.5-1.1-2.9-3.2-4.5-6.4-4.6-3.9-.2-6.6,1.5-7.7,5.3-.4,1.4-.6,2.8-.8,4.2,0,.6,0,1.2,0,1.8,0,8.5,0,17.1,0,25.6,0,2,.2,4,.8,6,.7,2,1.7,3.7,3.7,4.6,2.3,1,4.6,1,6.9,0,1.4-.6,2.3-1.6,3-2.9.8-1.5,1.2-3.1,1.3-4.7.1-1.4.1-2.9.2-4.3,0-1,0-1.9,0-3Z"/>
  <path class="st0" d="M381,221.9h-17.4c-.2-1-.2-83.4,0-84.2h17.4v84.2Z"/>
  <path class="st0" d="M134.3,221.9h-17.5v-84.1c.7-.2,16.5-.2,17.5,0v84.1Z"/>
  <path class="st0" d="M119.7,34.3h14.4v69.3h-14.3c-.2-.6-.3-67.6,0-69.3Z"/>
  <path class="st0" d="M381,109v15.9h-17.4c-.2-.6-.3-14.9,0-15.9h17.4Z"/>
  <path class="st0" d="M116.8,124.9v-15.9h17.4c.2.7.3,14,.1,15.8-.7.2-16.2.2-17.5,0Z"/>
  <path class="st0" d="M119.6,23.6v-12.9c.7-.2,12.7-.3,14.4,0v12.9c-.6.2-12.9.3-14.4,0Z"/>
</svg>