<?xml version="1.0" encoding="UTF-8"?>
<svg id="Layer_1" xmlns="http://www.w3.org/2000/svg" version="1.1" viewBox="0 0 1010 60">
  <!-- Generator: Adobe Illustrator 29.7.1, SVG Export Plug-In . SVG Version: 2.1.1 Build 8)  -->
  <defs>
    <style>
      .st0 {
        fill: #fff;
      }
    </style>
  </defs>
  <polygon class="st0" points="0 15.2 26.6 15.2 26.6 59.8 44.7 59.8 44.7 22.6 37.7 15.2 76.1 15.2 76.1 .3 0 .3 0 15.2"/>
  <polygon class="st0" points="840.6 .3 840.6 59.8 906.9 59.8 906.9 56.3 896.9 46.3 858.7 46.3 858.7 40.9 853.6 35.8 858.7 35.8 903.7 35.8 903.7 34.2 893.5 24 858.7 24 858.7 19 853.6 13.9 858.7 13.9 906.9 13.9 906.9 10.7 896.5 .3 840.6 .3"/>
  <path class="st0" d="M795.2,37.2v8l-39.9.3-.2-30.2,39.5-.3v7.5h18c0,0-.3-12.1-.3-12.1l-10.4-10.2-55,.5-10.1,10.2.7,39.7,9.6,9.5,55.5-.5,10.4-10.6v-11.9c0,0-17.9.1-17.9.1h.1Z"/>
  <polygon class="st0" points="401.8 44.9 366 .3 347.8 .3 337.2 10.8 337.2 49.3 347.7 59.8 354.3 59.8 354.3 15.1 390 59.8 408.4 59.8 418.9 49.2 418.9 .3 401.8 .3 401.8 44.9"/>
  <polygon class="st0" points="100 .3 100 59.8 118.1 59.8 118.1 7.7 111.3 .3 100 .3"/>
  <polygon class="st0" points="690.2 .3 690.2 59.8 708.3 59.8 708.3 7.7 701.5 .3 690.2 .3"/>
  <polygon class="st0" points="1009.9 10.5 999.6 .2 934.6 0 934.6 14.9 987.3 14.9 991.6 19.4 991.6 25.6 987.2 30.1 934.6 30.1 934.6 59.4 952.7 59.4 952.7 44.2 986.5 44.2 990.8 48.6 990.8 59.4 1009.9 59.7 1009.9 44.5 1002.5 37.1 1009.9 29.6 1009.9 10.5"/>
  <polygon class="st0" points="486.8 .4 486.7 .3 486.7 15.2 536.1 15.2 540.4 19.7 540.4 25.9 536.1 30.4 486.8 30.4 486.8 59.7 504.9 59.7 504.9 44.9 544.2 44.9 554.8 34.4 554.8 10.9 544.2 .4 486.8 .4"/>
  <polygon class="st0" points="584.7 0 584.7 15 637.4 15 641.7 19.5 641.7 25.7 637.4 30.2 584.7 30.2 584.7 59.5 602.8 59.5 602.8 44.3 636.6 44.3 640.9 48.7 640.9 59.5 660 59.8 660 44.6 652.6 37.1 660 29.7 660 10.6 649.7 .3 584.7 0"/>
  <polygon class="st0" points="143.5 15.2 170.1 15.2 170.1 59.8 188.2 59.8 188.2 22.6 181.2 15.2 219.6 15.2 219.6 .3 143.5 .3 143.5 15.2"/>
  <path class="st0" d="M249.8.3l-10.6,10.6v42.1l6.6,6.8h10.4v-14.6h41.2v14.6h10.4l6.6-6.8V10.9l-10.6-10.6h-54ZM295.1,30.4h-36.4l-4.4-4.6v-6.2l4.3-4.5h36.4l4.3,4.5v6.3h0l-4.3,4.5Z"/>
</svg>