<svg width="148" height="40" viewBox="0 0 148 40" fill="none" xmlns="http://www.w3.org/2000/svg">
<rect width="148" height="40" fill="white"/>
<path d="M89.0101 38.3164C87.708 38.3164 86.6827 38.0723 85.934 37.584C85.1853 37.0957 84.6677 36.5163 84.3812 35.8457L86.1976 35.0938C86.3278 35.3021 86.5004 35.5234 86.7152 35.7578C86.9366 35.9922 87.2328 36.1908 87.6039 36.3535C87.975 36.5163 88.4535 36.5977 89.0394 36.5977C89.8402 36.5977 90.5043 36.4023 91.0316 36.0117C91.559 35.6276 91.8226 35.0091 91.8226 34.1562V32.0176H91.6761C91.559 32.2454 91.3799 32.5026 91.139 32.7891C90.8982 33.069 90.5694 33.3132 90.1527 33.5215C89.736 33.7298 89.1924 33.834 88.5219 33.834C87.6625 33.834 86.8877 33.6322 86.1976 33.2285C85.514 32.8184 84.9672 32.2194 84.557 31.4316C84.1534 30.6374 83.9515 29.6608 83.9515 28.502C83.9515 27.3431 84.1501 26.3503 84.5472 25.5234C84.9509 24.6901 85.4978 24.0521 86.1879 23.6094C86.878 23.1667 87.6625 22.9453 88.5414 22.9453C89.2185 22.9453 89.7653 23.0592 90.182 23.2871C90.6052 23.5085 90.934 23.7689 91.1683 24.0684C91.4027 24.3678 91.585 24.6315 91.7152 24.8594H91.8715V23.082H93.932V34.2441C93.932 35.1816 93.7139 35.9499 93.2777 36.5488C92.848 37.1478 92.2621 37.5905 91.5199 37.877C90.7777 38.1699 89.9411 38.3164 89.0101 38.3164ZM88.9906 32.0664C89.9086 32.0664 90.6117 31.7507 91.1 31.1191C91.5948 30.4811 91.8422 29.599 91.8422 28.4727C91.8422 27.737 91.7347 27.0924 91.5199 26.5391C91.3051 25.9792 90.986 25.543 90.5629 25.2305C90.1397 24.9115 89.6156 24.752 88.9906 24.752C88.3526 24.752 87.8187 24.918 87.389 25.25C86.9659 25.5755 86.6469 26.0215 86.432 26.5879C86.2172 27.1478 86.1097 27.776 86.1097 28.4727C86.1097 29.1823 86.2172 29.8105 86.432 30.3574C86.6469 30.8978 86.9691 31.3177 87.3988 31.6172C87.835 31.9167 88.3656 32.0664 88.9906 32.0664Z" fill="#AEB2BA"/>
<path d="M75.0359 27.5254V34H72.9266V23.082H74.9774V24.8789H75.1238C75.3712 24.2865 75.7586 23.8177 76.2859 23.4727C76.8133 23.1211 77.4904 22.9453 78.3172 22.9453C79.0594 22.9453 79.7072 23.1016 80.2606 23.4141C80.8205 23.7201 81.2534 24.179 81.5594 24.791C81.8719 25.403 82.0281 26.1615 82.0281 27.0664V34H79.9188V27.3203C79.9188 26.5326 79.7104 25.9141 79.2938 25.4648C78.8771 25.0091 78.3107 24.7812 77.5945 24.7812C77.1063 24.7812 76.6668 24.8919 76.2762 25.1133C75.8921 25.3281 75.5893 25.6374 75.368 26.041C75.1466 26.4447 75.0359 26.9395 75.0359 27.5254Z" fill="#AEB2BA"/>
<path d="M68.3859 34V23.082H70.4953V34H68.3859ZM69.4504 21.4023C69.0793 21.4023 68.7635 21.2786 68.5031 21.0312C68.2427 20.7839 68.1125 20.4876 68.1125 20.1426C68.1125 19.791 68.2427 19.4915 68.5031 19.2441C68.7635 18.9967 69.0793 18.873 69.4504 18.873C69.815 18.873 70.1275 18.9967 70.3879 19.2441C70.6548 19.4915 70.7883 19.791 70.7883 20.1426C70.7883 20.4876 70.6548 20.7839 70.3879 21.0312C70.1275 21.2786 69.815 21.4023 69.4504 21.4023Z" fill="#AEB2BA"/>
<path d="M66.4625 23.082V24.791H60.5055V23.082H66.4625ZM62.0973 20.4844H64.2164V30.7969C64.2164 31.2982 64.3206 31.666 64.5289 31.9004C64.7373 32.1283 65.0726 32.2422 65.5348 32.2422C65.6455 32.2422 65.7627 32.2357 65.8864 32.2227C66.0166 32.2096 66.1468 32.1901 66.277 32.1641L66.6774 33.9219C66.4625 33.9935 66.2281 34.0488 65.9742 34.0879C65.7203 34.127 65.4664 34.1465 65.2125 34.1465C64.2685 34.1465 63.5133 33.8828 62.9469 33.3555C62.3805 32.8216 62.0973 32.112 62.0973 31.2266V20.4844Z" fill="#AEB2BA"/>
<path d="M58.9531 19.4492V34H56.8438V19.4492H58.9531Z" fill="#AEB2BA"/>
<path d="M52.3031 29.4883V23.082H54.4125V34H52.3422V32.1055H52.225C51.9646 32.6849 51.5609 33.1699 51.014 33.5605C50.4672 33.9512 49.7836 34.1432 48.9633 34.1367C48.2601 34.1367 47.6384 33.9837 47.098 33.6777C46.5642 33.3717 46.1442 32.9128 45.8383 32.3008C45.5388 31.6888 45.389 30.9303 45.389 30.0254V23.082H47.4984V29.7812C47.4984 30.5169 47.7067 31.1061 48.1234 31.5488C48.5401 31.9915 49.0772 32.2096 49.7347 32.2031C50.1319 32.2031 50.5258 32.1055 50.9164 31.9102C51.3135 31.7148 51.6423 31.4154 51.9027 31.0117C52.1696 30.6081 52.3031 30.1003 52.3031 29.4883Z" fill="#AEB2BA"/>
<path d="M43.2899 25.7578L41.366 26.0898C41.2423 25.7253 41.0112 25.39 40.6727 25.084C40.3406 24.778 39.8426 24.625 39.1785 24.625C38.5796 24.625 38.0783 24.7617 37.6746 25.0352C37.2775 25.3021 37.0789 25.6439 37.0789 26.0605C37.0789 26.4251 37.2124 26.7214 37.4793 26.9492C37.7527 27.1771 38.1857 27.3594 38.7781 27.4961L40.5262 27.8867C41.5223 28.1146 42.2677 28.4727 42.7625 28.9609C43.2573 29.4492 43.5047 30.0742 43.5047 30.8359C43.5047 31.4935 43.3159 32.0794 42.9383 32.5938C42.5607 33.1016 42.0366 33.502 41.366 33.7949C40.6955 34.0814 39.9207 34.2246 39.0418 34.2246C37.8179 34.2246 36.8218 33.9609 36.0535 33.4336C35.2853 32.9062 34.8133 32.1641 34.6375 31.207L36.6785 30.8945C36.8087 31.4284 37.0724 31.832 37.4695 32.1055C37.8732 32.3789 38.394 32.5156 39.032 32.5156C39.7221 32.5156 40.2755 32.3691 40.6922 32.0762C41.1154 31.7832 41.327 31.4284 41.327 31.0117C41.327 30.3216 40.8126 29.8561 39.784 29.6152L37.9383 29.2051C36.9162 28.9707 36.1609 28.6029 35.6727 28.1016C35.1909 27.5938 34.95 26.9557 34.95 26.1875C34.95 25.543 35.129 24.9766 35.4871 24.4883C35.8517 24 36.3498 23.6224 36.9813 23.3555C37.6193 23.082 38.3452 22.9453 39.159 22.9453C40.3439 22.9453 41.2716 23.2025 41.9422 23.7168C42.6193 24.2311 43.0685 24.9115 43.2899 25.7578Z" fill="#AEB2BA"/>
<path d="M25.7023 27.5254V34H23.593V23.082H25.6437V24.8789H25.7902C26.0376 24.2865 26.425 23.8177 26.9523 23.4727C27.4797 23.1211 28.1568 22.9453 28.9836 22.9453C29.7258 22.9453 30.3736 23.1016 30.9269 23.4141C31.4868 23.7201 31.9198 24.179 32.2258 24.791C32.5383 25.403 32.6945 26.1615 32.6945 27.0664V34H30.5851V27.3203C30.5851 26.5326 30.3768 25.9141 29.9601 25.4648C29.5435 25.0091 28.9771 24.7812 28.2609 24.7812C27.7726 24.7812 27.3332 24.8919 26.9426 25.1133C26.5585 25.3281 26.2557 25.6374 26.0344 26.041C25.813 26.4447 25.7023 26.9395 25.7023 27.5254Z" fill="#AEB2BA"/>
<path d="M16.5621 34.2246C15.54 34.2246 14.6448 33.9902 13.8766 33.5215C13.1149 33.0527 12.5224 32.3952 12.0992 31.5488C11.6826 30.7025 11.4742 29.7194 11.4742 28.5996C11.4742 27.4668 11.6826 26.4772 12.0992 25.6309C12.5224 24.778 13.1149 24.1172 13.8766 23.6484C14.6448 23.1797 15.54 22.9453 16.5621 22.9453C17.5908 22.9453 18.486 23.1797 19.2477 23.6484C20.0094 24.1172 20.6018 24.778 21.025 25.6309C21.4482 26.4772 21.6598 27.4668 21.6598 28.5996C21.6598 29.7194 21.4482 30.7025 21.025 31.5488C20.6018 32.3952 20.0094 33.0527 19.2477 33.5215C18.486 33.9902 17.5908 34.2246 16.5621 34.2246ZM16.5621 32.4375C17.2327 32.4375 17.7861 32.2617 18.2223 31.9102C18.6585 31.5586 18.9808 31.0931 19.1891 30.5137C19.4039 29.9277 19.5114 29.2897 19.5114 28.5996C19.5114 27.8965 19.4039 27.252 19.1891 26.666C18.9808 26.0801 18.6585 25.6113 18.2223 25.2598C17.7861 24.9082 17.2327 24.7324 16.5621 24.7324C15.8981 24.7324 15.3479 24.9082 14.9117 25.2598C14.4821 25.6113 14.1598 26.0801 13.9449 26.666C13.7301 27.252 13.6227 27.8965 13.6227 28.5996C13.6227 29.2897 13.7301 29.9277 13.9449 30.5137C14.1598 31.0931 14.4821 31.5586 14.9117 31.9102C15.3479 32.2617 15.8981 32.4375 16.5621 32.4375Z" fill="#AEB2BA"/>
<path d="M5.5957 34.2246C4.54753 34.2246 3.64258 33.9837 2.88086 33.502C2.11914 33.0202 1.5332 32.3561 1.12305 31.5098C0.712891 30.6634 0.507812 29.6934 0.507812 28.5996C0.507812 27.4863 0.716146 26.5065 1.13281 25.6602C1.55599 24.8073 2.14518 24.1432 2.90039 23.668C3.66211 23.1862 4.55404 22.9453 5.57617 22.9453C6.40951 22.9453 7.14844 23.0983 7.79297 23.4043C8.44401 23.7038 8.9681 24.1302 9.36523 24.6836C9.76888 25.237 10.0065 25.8815 10.0781 26.6172H8.00781C7.9362 26.2721 7.79622 25.9564 7.58789 25.6699C7.38607 25.3835 7.11914 25.1556 6.78711 24.9863C6.45508 24.8171 6.0612 24.7324 5.60547 24.7324C5.01302 24.7324 4.49544 24.8887 4.05273 25.2012C3.61654 25.5072 3.27474 25.9466 3.02734 26.5195C2.77995 27.0924 2.65625 27.7695 2.65625 28.5508C2.65625 29.3385 2.77669 30.0254 3.01758 30.6113C3.25846 31.1973 3.60026 31.6497 4.04297 31.9688C4.49219 32.2812 5.01302 32.4375 5.60547 32.4375C6.21745 32.4375 6.73828 32.2682 7.16797 31.9297C7.60417 31.5911 7.88411 31.1289 8.00781 30.543H10.0781C10.0065 31.2526 9.77865 31.8841 9.39453 32.4375C9.01042 32.9909 8.49609 33.4271 7.85156 33.7461C7.20703 34.0651 6.45508 34.2246 5.5957 34.2246Z" fill="#AEB2BA"/>
<path d="M144.214 16.1855C143.732 16.1855 143.325 16.0228 142.993 15.6973C142.661 15.3717 142.495 14.9681 142.495 14.4863C142.495 14.0046 142.661 13.6009 142.993 13.2754C143.325 12.9499 143.732 12.7871 144.214 12.7871C144.696 12.7871 145.103 12.9499 145.435 13.2754C145.767 13.6009 145.933 14.0046 145.933 14.4863C145.933 14.9681 145.767 15.3717 145.435 15.6973C145.103 16.0228 144.696 16.1855 144.214 16.1855Z" fill="#AEB2BA"/>
<path d="M135.357 16.2148C134.237 16.2148 133.27 15.987 132.457 15.5312C131.643 15.0755 131.018 14.4277 130.582 13.5879C130.152 12.7415 129.937 11.7422 129.937 10.5898C129.937 9.47005 130.152 8.48698 130.582 7.64062C131.018 6.79427 131.63 6.13346 132.418 5.6582C133.212 5.18294 134.143 4.94531 135.211 4.94531C135.933 4.94531 136.607 5.0625 137.232 5.29688C137.857 5.52474 138.404 5.86979 138.873 6.33203C139.341 6.78776 139.706 7.36393 139.966 8.06055C140.227 8.75065 140.357 9.5612 140.357 10.4922V11.3125H131.138V9.44727H138.892L137.486 9.93555C137.486 9.38216 137.401 8.90039 137.232 8.49023C137.063 8.08008 136.809 7.76432 136.47 7.54297C136.138 7.3151 135.725 7.20117 135.23 7.20117C134.735 7.20117 134.315 7.3151 133.97 7.54297C133.632 7.77083 133.371 8.08008 133.189 8.4707C133.007 8.86133 132.916 9.31055 132.916 9.81836V11.1367C132.916 11.7292 133.02 12.237 133.228 12.6602C133.436 13.0768 133.726 13.3991 134.097 13.627C134.475 13.8483 134.908 13.959 135.396 13.959C135.735 13.959 136.041 13.9102 136.314 13.8125C136.588 13.7148 136.822 13.5716 137.017 13.3828C137.219 13.194 137.369 12.9661 137.466 12.6992L140.259 12.8848C140.123 13.5553 139.836 14.1413 139.4 14.6426C138.97 15.1374 138.414 15.5247 137.73 15.8047C137.047 16.0781 136.255 16.2148 135.357 16.2148Z" fill="black"/>
<path d="M123.805 16.2148C122.691 16.2148 121.734 15.9772 120.934 15.502C120.133 15.0202 119.518 14.3594 119.088 13.5195C118.658 12.6732 118.443 11.6966 118.443 10.5898C118.443 9.47005 118.658 8.48698 119.088 7.64062C119.524 6.79427 120.143 6.13346 120.943 5.6582C121.744 5.18294 122.698 4.94531 123.805 4.94531C124.755 4.94531 125.585 5.11784 126.295 5.46289C127.011 5.80794 127.577 6.29297 127.994 6.91797C128.411 7.54297 128.639 8.27865 128.678 9.125H125.826C125.774 8.76042 125.663 8.44141 125.494 8.16797C125.325 7.89453 125.1 7.68294 124.82 7.5332C124.54 7.38346 124.215 7.30859 123.844 7.30859C123.375 7.30859 122.965 7.43555 122.613 7.68945C122.268 7.93685 121.998 8.30469 121.803 8.79297C121.614 9.27474 121.52 9.86068 121.52 10.5508C121.52 11.2409 121.614 11.8333 121.803 12.3281C121.998 12.8229 122.268 13.2005 122.613 13.4609C122.965 13.7214 123.375 13.8516 123.844 13.8516C124.365 13.8516 124.804 13.6888 125.162 13.3633C125.52 13.0312 125.742 12.5755 125.826 11.9961H128.678C128.632 12.8294 128.408 13.5651 128.004 14.2031C127.6 14.8346 127.044 15.3294 126.334 15.6875C125.624 16.0391 124.781 16.2148 123.805 16.2148Z" fill="black"/>
<path d="M109.674 9.69141V16H106.657V5.08203H109.625V7.02539H109.733C109.98 6.38086 110.374 5.87305 110.914 5.50195C111.455 5.13086 112.132 4.94531 112.946 4.94531C113.701 4.94531 114.358 5.11133 114.918 5.44336C115.485 5.77539 115.924 6.2474 116.237 6.85938C116.549 7.47135 116.705 8.20378 116.705 9.05664V16H113.688V9.59375C113.688 8.92969 113.515 8.40885 113.17 8.03125C112.825 7.64714 112.35 7.45508 111.745 7.45508C111.341 7.45508 110.983 7.54622 110.67 7.72852C110.358 7.9043 110.114 8.1582 109.938 8.49023C109.762 8.82227 109.674 9.22266 109.674 9.69141Z" fill="black"/>
<path d="M99.9578 16.2148C98.838 16.2148 97.8712 15.987 97.0574 15.5312C96.2436 15.0755 95.6186 14.4277 95.1824 13.5879C94.7527 12.7415 94.5379 11.7422 94.5379 10.5898C94.5379 9.47005 94.7527 8.48698 95.1824 7.64062C95.6186 6.79427 96.2306 6.13346 97.0184 5.6582C97.8126 5.18294 98.7436 4.94531 99.8113 4.94531C100.534 4.94531 101.208 5.0625 101.833 5.29688C102.458 5.52474 103.005 5.86979 103.473 6.33203C103.942 6.78776 104.307 7.36393 104.567 8.06055C104.828 8.75065 104.958 9.5612 104.958 10.4922V11.3125H95.7391V9.44727H103.493L102.087 9.93555C102.087 9.38216 102.002 8.90039 101.833 8.49023C101.664 8.08008 101.41 7.76432 101.071 7.54297C100.739 7.3151 100.326 7.20117 99.8309 7.20117C99.3361 7.20117 98.9162 7.3151 98.5711 7.54297C98.2326 7.77083 97.9721 8.08008 97.7899 8.4707C97.6076 8.86133 97.5164 9.31055 97.5164 9.81836V11.1367C97.5164 11.7292 97.6206 12.237 97.8289 12.6602C98.0373 13.0768 98.327 13.3991 98.6981 13.627C99.0757 13.8483 99.5086 13.959 99.9969 13.959C100.335 13.959 100.641 13.9102 100.915 13.8125C101.188 13.7148 101.423 13.5716 101.618 13.3828C101.82 13.194 101.97 12.9661 102.067 12.6992L104.86 12.8848C104.723 13.5553 104.437 14.1413 104.001 14.6426C103.571 15.1374 103.014 15.5247 102.331 15.8047C101.647 16.0781 100.856 16.2148 99.9578 16.2148Z" fill="black"/>
<path d="M89.7824 11.3613V5.08203H92.8V16H89.8996V14.0176H89.7824C89.535 14.6491 89.1281 15.1634 88.5617 15.5605C87.9953 15.9512 87.3019 16.1432 86.4816 16.1367C85.7525 16.1367 85.1079 15.974 84.548 15.6484C83.9946 15.3164 83.5617 14.8444 83.2492 14.2324C82.9432 13.6204 82.7902 12.888 82.7902 12.0352V5.08203H85.8078V11.5078C85.8078 12.1458 85.9803 12.6536 86.3254 13.0312C86.6704 13.4023 87.1294 13.5846 87.7023 13.5781C88.0669 13.5781 88.4055 13.4967 88.718 13.334C89.0305 13.1647 89.2844 12.9141 89.4797 12.582C89.6815 12.25 89.7824 11.8431 89.7824 11.3613Z" fill="black"/>
<path d="M77.5953 20.082V14.252H77.5074C77.3707 14.5514 77.1722 14.8509 76.9117 15.1504C76.6513 15.4434 76.316 15.6875 75.9059 15.8828C75.5022 16.0781 75.0074 16.1758 74.4215 16.1758C73.5882 16.1758 72.8362 15.9609 72.1656 15.5312C71.4951 15.1016 70.9645 14.4701 70.5739 13.6367C70.1832 12.7969 69.9879 11.7715 69.9879 10.5605C69.9879 9.31055 70.1897 8.26888 70.5934 7.43555C70.997 6.60221 71.5341 5.98047 72.2047 5.57031C72.8753 5.15365 73.6077 4.94531 74.402 4.94531C75.014 4.94531 75.525 5.04948 75.9352 5.25781C76.3453 5.45964 76.6774 5.71354 76.9313 6.01953C77.1852 6.32552 77.3772 6.62826 77.5074 6.92773H77.6442V5.08203H80.6227V20.082H77.5953ZM75.3688 13.7734C75.8571 13.7734 76.2705 13.64 76.609 13.373C76.9541 13.0996 77.2145 12.722 77.3903 12.2402C77.5726 11.7585 77.6637 11.1953 77.6637 10.5508C77.6637 9.89974 77.5758 9.33659 77.4 8.86133C77.2242 8.37956 76.9638 8.00846 76.6188 7.74805C76.2737 7.48112 75.8571 7.34766 75.3688 7.34766C74.874 7.34766 74.4573 7.48438 74.1188 7.75781C73.7802 8.03125 73.5231 8.40885 73.3473 8.89062C73.1715 9.36589 73.0836 9.91927 73.0836 10.5508C73.0836 11.1823 73.1715 11.7422 73.3473 12.2305C73.5231 12.7122 73.7802 13.0898 74.1188 13.3633C74.4638 13.6367 74.8805 13.7734 75.3688 13.7734Z" fill="black"/>
<path d="M63.7383 16.2148C62.6185 16.2148 61.6517 15.987 60.8379 15.5312C60.0241 15.0755 59.3991 14.4277 58.9629 13.5879C58.5332 12.7415 58.3184 11.7422 58.3184 10.5898C58.3184 9.47005 58.5332 8.48698 58.9629 7.64062C59.3991 6.79427 60.0111 6.13346 60.7988 5.6582C61.5931 5.18294 62.5241 4.94531 63.5918 4.94531C64.3145 4.94531 64.9883 5.0625 65.6133 5.29688C66.2383 5.52474 66.7852 5.86979 67.2539 6.33203C67.7227 6.78776 68.0872 7.36393 68.3477 8.06055C68.6081 8.75065 68.7383 9.5612 68.7383 10.4922V11.3125H59.5195V9.44727H67.2734L65.8672 9.93555C65.8672 9.38216 65.7826 8.90039 65.6133 8.49023C65.444 8.08008 65.1901 7.76432 64.8516 7.54297C64.5195 7.3151 64.1061 7.20117 63.6113 7.20117C63.1165 7.20117 62.6966 7.3151 62.3516 7.54297C62.013 7.77083 61.7526 8.08008 61.5703 8.4707C61.388 8.86133 61.2969 9.31055 61.2969 9.81836V11.1367C61.2969 11.7292 61.401 12.237 61.6094 12.6602C61.8177 13.0768 62.1074 13.3991 62.4785 13.627C62.8561 13.8483 63.2891 13.959 63.7773 13.959C64.1159 13.959 64.4219 13.9102 64.6953 13.8125C64.9688 13.7148 65.2031 13.5716 65.3984 13.3828C65.6003 13.194 65.75 12.9661 65.8477 12.6992L68.6406 12.8848C68.5039 13.5553 68.2174 14.1413 67.7812 14.6426C67.3516 15.1374 66.7949 15.5247 66.1113 15.8047C65.4277 16.0781 64.6367 16.2148 63.7383 16.2148Z" fill="black"/>
<path d="M56.8441 8.19727L54.0804 8.36328C54.0088 8.01823 53.8168 7.72201 53.5043 7.47461C53.1918 7.2207 52.7719 7.09375 52.2445 7.09375C51.7758 7.09375 51.3819 7.19141 51.0629 7.38672C50.7504 7.58203 50.5941 7.84245 50.5941 8.16797C50.5941 8.42839 50.695 8.65299 50.8969 8.8418C51.1052 9.02409 51.46 9.16732 51.9613 9.27148L53.9437 9.66211C55.0049 9.87695 55.7959 10.2253 56.3168 10.707C56.8376 11.1888 57.098 11.8236 57.098 12.6113C57.098 13.334 56.8897 13.9655 56.473 14.5059C56.0564 15.0397 55.4834 15.4596 54.7543 15.7656C54.0251 16.0651 53.1885 16.2148 52.2445 16.2148C50.7992 16.2148 49.6469 15.9121 48.7875 15.3066C47.9346 14.7012 47.4366 13.8809 47.2933 12.8457L50.2523 12.6895C50.35 13.1322 50.5713 13.4674 50.9164 13.6953C51.2614 13.9232 51.7041 14.0371 52.2445 14.0371C52.7719 14.0371 53.1983 13.9329 53.5238 13.7246C53.8558 13.5163 54.0219 13.2526 54.0219 12.9336C54.0219 12.3932 53.5531 12.0286 52.6156 11.8398L50.7308 11.4492C49.6696 11.2344 48.8786 10.8665 48.3578 10.3457C47.837 9.82487 47.5765 9.15755 47.5765 8.34375C47.5765 7.64062 47.7686 7.03516 48.1527 6.52734C48.5368 6.01953 49.0739 5.62891 49.764 5.35547C50.4607 5.08203 51.2745 4.94531 52.2054 4.94531C53.5857 4.94531 54.6696 5.23828 55.4574 5.82422C56.2517 6.40365 56.7139 7.19466 56.8441 8.19727Z" fill="black"/>
<path d="M38.5633 9.69141V16H35.5457V5.08203H38.5145V7.02539H38.6219C38.8693 6.38086 39.2632 5.87305 39.8035 5.50195C40.3439 5.13086 41.021 4.94531 41.8348 4.94531C42.59 4.94531 43.2475 5.11133 43.8074 5.44336C44.3738 5.77539 44.8133 6.2474 45.1258 6.85938C45.4383 7.47135 45.5945 8.20378 45.5945 9.05664V16H42.577V9.59375C42.577 8.92969 42.4044 8.40885 42.0594 8.03125C41.7143 7.64714 41.2391 7.45508 40.6336 7.45508C40.23 7.45508 39.8719 7.54622 39.5594 7.72852C39.2469 7.9043 39.0027 8.1582 38.827 8.49023C38.6512 8.82227 38.5633 9.22266 38.5633 9.69141Z" fill="black"/>
<path d="M30.341 16V5.08203H33.3586V16H30.341ZM31.8449 3.68555C31.3957 3.68555 31.0116 3.53581 30.6926 3.23633C30.3736 2.93685 30.2141 2.57552 30.2141 2.15234C30.2141 1.72917 30.3736 1.37109 30.6926 1.07812C31.0116 0.778646 31.3957 0.628906 31.8449 0.628906C32.3006 0.628906 32.688 0.778646 33.007 1.07812C33.326 1.37109 33.4855 1.72917 33.4855 2.15234C33.4855 2.57552 33.326 2.93685 33.007 3.23633C32.688 3.53581 32.3006 3.68555 31.8449 3.68555Z" fill="black"/>
<path d="M22.0309 16.2051C21.3408 16.2051 20.719 16.0846 20.1656 15.8438C19.6188 15.5964 19.1891 15.2318 18.8766 14.75C18.5641 14.2682 18.4078 13.6693 18.4078 12.9531C18.4078 12.3411 18.5185 11.8333 18.7399 11.4297C18.9612 11.0195 19.264 10.6875 19.6481 10.4336C20.0322 10.1797 20.4684 9.98763 20.9567 9.85742C21.4449 9.72721 21.9625 9.63607 22.5094 9.58398C23.1409 9.52539 23.6487 9.4668 24.0328 9.4082C24.417 9.34961 24.6969 9.26172 24.8727 9.14453C25.055 9.02083 25.1461 8.84505 25.1461 8.61719V8.56836C25.1461 8.11914 25.0029 7.77083 24.7164 7.52344C24.4365 7.27604 24.0393 7.15234 23.525 7.15234C22.9847 7.15234 22.5517 7.27279 22.2262 7.51367C21.9072 7.74805 21.6956 8.04753 21.5914 8.41211L18.7887 8.1875C18.9319 7.52344 19.2119 6.95052 19.6285 6.46875C20.0452 5.98047 20.5823 5.60612 21.2399 5.3457C21.9039 5.07878 22.6722 4.94531 23.5446 4.94531C24.15 4.94531 24.7295 5.01693 25.2828 5.16016C25.8362 5.30339 26.3278 5.52474 26.7574 5.82422C27.1936 6.11719 27.5387 6.49805 27.7926 6.9668C28.0465 7.43555 28.1735 7.99219 28.1735 8.63672V16H25.2926V14.4766H25.2145C25.0387 14.8216 24.8043 15.1243 24.5114 15.3848C24.2184 15.6387 23.8668 15.8405 23.4567 15.9902C23.0465 16.1335 22.5712 16.2051 22.0309 16.2051ZM22.9 14.1152C23.3427 14.1152 23.7334 14.0273 24.0719 13.8516C24.417 13.6693 24.6839 13.4284 24.8727 13.1289C25.068 12.8229 25.1656 12.4811 25.1656 12.1035V10.9414C25.0745 11 24.9443 11.0553 24.775 11.1074C24.6123 11.1595 24.43 11.2051 24.2281 11.2441C24.0263 11.2832 23.8245 11.319 23.6227 11.3516C23.4209 11.3776 23.2386 11.4036 23.0758 11.4297C22.7177 11.4818 22.4052 11.5664 22.1383 11.6836C21.8714 11.7943 21.663 11.9473 21.5133 12.1426C21.3701 12.3314 21.2985 12.569 21.2985 12.8555C21.2985 13.2656 21.4482 13.5781 21.7477 13.793C22.0472 14.0078 22.4313 14.1152 22.9 14.1152Z" fill="black"/>
<path d="M0.888672 16V5.08203H3.75V7.02539H3.88672C4.11458 6.38086 4.49544 5.87305 5.0293 5.50195C5.56315 5.13086 6.19792 4.94531 6.93359 4.94531C7.68229 4.94531 8.31706 5.13411 8.83789 5.51172C9.36523 5.88281 9.7168 6.38737 9.89258 7.02539H10.0098C10.2311 6.39388 10.6348 5.88932 11.2207 5.51172C11.8066 5.13411 12.4967 4.94531 13.291 4.94531C14.3066 4.94531 15.1335 5.26758 15.7715 5.91211C16.416 6.55664 16.7383 7.47135 16.7383 8.65625V16H13.7109V9.26172C13.7109 8.64974 13.5482 8.19401 13.2227 7.89453C12.9036 7.59505 12.5033 7.44531 12.0215 7.44531C11.4746 7.44531 11.0449 7.62109 10.7324 7.97266C10.4264 8.31771 10.2734 8.77344 10.2734 9.33984V16H7.34375V9.18359C7.34375 8.65625 7.19076 8.23633 6.88477 7.92383C6.57878 7.60482 6.17839 7.44531 5.68359 7.44531C5.34505 7.44531 5.04232 7.52995 4.77539 7.69922C4.50846 7.86849 4.29688 8.10286 4.14062 8.40234C3.98438 8.69531 3.90625 9.04688 3.90625 9.45703V16H0.888672Z" fill="black"/>
</svg>
