<?xml version="1.0" encoding="UTF-8"?>
<svg id="Layer_1" data-name="Layer 1" xmlns="http://www.w3.org/2000/svg" viewBox="0 0 280 210">
  <defs>
    <style>
      .cls-1 {
        fill: #fff;
        stroke-width: 0px;
      }
    </style>
  </defs>
  <path class="cls-1" d="M91.3,95.64l1.49,7.04s0,.03.01.04l32.23,95.04c.62,1.82,2.32,3.04,4.23,3.04l22.17.04c1.98,0,3.72-1.29,4.29-3.18l28.73-94.02,1.84-8.32-.19,67.48c0,24.88,12.93,40.91,43.78,40.91s43.79-16.03,43.79-40.91l.19-119.86c0-24.88-12.42-39.09-43.28-39.09h-.83c-35.08-.21-43.57,22.03-43.69,22.33l-46.09,132.85L89.05,8.7c-1.54-4.57-3.44-4.77-7.33-4.86h-12.44c-1.56.05-2.79,1.81-2.79,3.38l-.02,34.26c.05.44.09.87.12,1.31l-.18,120.01c-.39,9.29-5.88,19.54-18.8,19.54-13.93,0-18.45-10.48-19.1-19.54l-.12-17.64c-.12-2.06-1.71-2.49-2.79-2.53H6.52c-1.79.09-2.77,1.27-2.79,2.63v17.55c0,24.88,12.93,41.04,43.78,41.04s43.79-16.16,43.79-41.04v-67.16ZM248.81,162.8c0,9.03-6.01,19.48-18.8,19.54-13.93.07-19.1-10.8-19.1-19.54l.18-118.03c-.33-9.74,6.21-19.56,19.13-19.52,13.15.04,18.65,10.07,18.77,19.52l-.18,118.03Z"/>
</svg>