<?xml version="1.0" encoding="UTF-8"?>
<svg id="Layer_1" xmlns="http://www.w3.org/2000/svg" version="1.1" viewBox="0 0 430 150">
  <!-- Generator: Adobe Illustrator 30.3.0, SVG Export Plug-In . SVG Version: 2.1.3 Build 182)  -->
  <defs>
    <style>
      .st0 {
        isolation: isolate;
      }

      .st1 {
        fill: #fff;
      }
    </style>
  </defs>
  <path class="st1" d="M133.1,115.8H50.1V0l83.1,115.8h0Z"/>
  <path class="st1" d="M41.7,115.7H5.1L41.7,22.4s0,93.3,0,93.3Z"/>
  <path class="st1" d="M145.4,52h29c19.7,0,27,8.3,27,21.4s-7.3,21.6-27,21.6h-11.4v20.5h-17.7v-63.6h0ZM163,82h10.6c6.5,0,9.6-3.2,9.6-8.6s-3.1-8.4-9.6-8.4h-10.6v17Z"/>
  <path class="st1" d="M209.4,115.6v-63.7h46.7v13h-29v11.1h23.9v13h-23.9v13.5h29v13h-46.7Z"/>
  <path class="st1" d="M260.8,115.6l24.4-63.6h21.8l23.8,63.6h-19l-4.1-12.5h-23.6l-4.2,12.5h-19.2.1ZM288.3,90.7h15l-7.3-22.9h-.2l-7.6,22.9h.1Z"/>
  <path class="st1" d="M355.1,115.6h-17.6v-63.7h17.6v24.6l23.5-24.6h22.4l-23.4,23.7,23.2,39.9h-20l-15.9-28.2-9.8,9.7v18.6h0Z"/>
  <path class="st1" d="M3.6,132.9c1.4-1.5,3.5-2.4,5.5-2.3,3,0,5.1,1,6.5,3.1.7,1,1.2,2.2,1.3,3.5h-3.8c-.2-.7-.5-1.4-.9-2.1-.8-.9-1.9-1.3-3-1.2-1.3,0-2.5.6-3.2,1.7-.9,1.5-1.3,3.2-1.2,4.8,0,1.7.3,3.3,1.2,4.6.7,1,1.9,1.6,3.1,1.6s2.3-.4,3-1.3c.5-.6.8-1.4.9-2.2h3.7c-.2,1.9-1.1,3.7-2.5,4.9s-3.2,2-5,1.9c-2.3,0-4.5-.8-6-2.6-1.6-2-2.4-4.5-2.2-7,0-3.3.8-5.7,2.5-7.5h0Z"/>
  <path class="st1" d="M34.1,147.8c-1.6,1.5-3.7,2.3-5.8,2.2-2.2.2-4.3-.6-5.9-2.2-1.8-1.8-2.8-4.2-2.8-7.6s.9-5.8,2.8-7.6c1.6-1.6,3.8-2.3,5.9-2.2,2.2,0,4.3.6,5.9,2.2,1.8,1.7,2.7,4.2,2.7,7.6s-.9,5.9-2.8,7.6ZM31.8,145c1.8-3,1.8-6.6,0-9.7-.8-1.1-2.2-1.8-3.6-1.7-1.4,0-2.7.6-3.6,1.7-1.8,3-1.8,6.7,0,9.7.8,1.1,2.2,1.8,3.6,1.7,1.4,0,2.8-.6,3.6-1.7Z"/>
  <path class="st1" d="M40.1,131h3.9l7.1,12.8v-12.8h3.5v18.5h-3.8l-7.3-13.1v13.1h-3.5v-18.5h0Z"/>
  <path class="st1" d="M61.3,143.8c0,.7.3,1.3.7,1.9.8.8,2,1.3,3.2,1.1.7,0,1.5,0,2.2-.3,1-.3,1.6-1.2,1.6-2.2s-.3-1.1-.8-1.4c-.8-.4-1.6-.7-2.5-.9l-1.9-.4c-1.4-.2-2.7-.7-3.9-1.4-1.3-1-2-2.5-1.8-4,0-1.6.6-3.1,1.8-4.1,1.5-1.2,3.3-1.8,5.1-1.7,1.8,0,3.5.5,4.8,1.6s2.2,2.8,2.1,4.4h-3.6c0-1-.6-1.9-1.5-2.4-.7-.3-1.4-.5-2.2-.5s-1.6.2-2.3.6c-.6.4-.9,1-.9,1.7s.3,1.2.9,1.5c.8.4,1.6.6,2.4.8l3.1.8c1.1.2,2.2.7,3.1,1.4,1.1,1,1.7,2.4,1.6,3.9,0,1.6-.7,3.2-1.9,4.2-1.5,1.2-3.4,1.8-5.3,1.7-2,0-3.9-.5-5.5-1.7-1.3-1.1-2.1-2.8-2-4.5h3.6,0Z"/>
  <path class="st1" d="M88.6,131v3.3h-5.4v15.2h-3.8v-15.2h-5.4v-3.3h14.6Z"/>
  <path class="st1" d="M102.7,131.5c.7.3,1.2.7,1.7,1.3.4.5.7,1,.9,1.6s.4,1.3.3,2c0,.9-.2,1.8-.7,2.6-.4.9-1.2,1.5-2.1,1.8.7.3,1.4.8,1.8,1.5.4.9.6,1.9.5,2.9v3c0,.4.3.8.7,1.1v.5h-4.1c0-.4-.2-.8-.2-1,0-.5-.2-1.1-.2-1.6v-1.7c0-.8,0-1.7-.6-2.4-.6-.5-1.4-.7-2.2-.6h-3.7v7.3h-3.8v-18.6h8.6c1,0,1.9,0,2.9.5h.2v-.2ZM95,134.2v4.9h4c.6,0,1.2,0,1.8-.3.8-.4,1.2-1.3,1.1-2.1,0-.9-.3-1.8-1-2.3-.5-.3-1.1-.4-1.8-.3h-4.1Z"/>
  <path class="st1" d="M109.6,131h3.8v11.4c0,1,0,1.9.4,2.8.5,1.1,1.5,1.6,3,1.6s2.5-.5,3-1.6c.3-.9.5-1.9.4-2.8v-11.4h3.9v11.4c0,1.6-.2,3.2-.9,4.5-1.1,2-3.2,3.1-6.3,3.1s-5.2-1-6.3-3.1c-.7-1.5-1-3-.9-4.5v-11.4h0Z"/>
  <path class="st1" d="M129.8,132.9c1.4-1.5,3.5-2.4,5.5-2.3,3,0,5.1,1,6.5,3.1.7,1,1.2,2.2,1.2,3.5h-3.8c-.2-.7-.5-1.4-.9-2.1-1.5-1.6-4-1.7-5.6,0s-.4.4-.5.6c-.9,1.5-1.3,3.2-1.2,4.8,0,1.7.3,3.3,1.2,4.6.7,1,1.9,1.6,3.1,1.6s2.3-.4,3-1.3c.5-.7.8-1.4.9-2.2h3.8c-.2,1.9-1.1,3.7-2.5,4.9s-3.2,2-5,1.9c-2.3,0-4.5-.8-6-2.6-1.6-2-2.4-4.5-2.2-7,0-3.3.8-5.7,2.5-7.5h0Z"/>
  <path class="st1" d="M159.6,131v3.3h-5.4v15.2h-3.8v-15.2h-5.4v-3.3h14.6,0Z"/>
  <path class="st1" d="M165.5,149.5h-3.8v-18.5h3.8v18.5Z"/>
  <path class="st1" d="M183.3,147.8c-3.4,2.9-8.4,2.9-11.7,0-1.8-1.8-2.8-4.2-2.8-7.6s.9-5.8,2.8-7.6c3.4-2.9,8.4-2.9,11.7,0,1.8,1.7,2.7,4.2,2.7,7.6s-.9,5.9-2.7,7.6ZM181,145c1.8-3,1.8-6.6,0-9.7-.8-1.1-2.2-1.8-3.6-1.7-1.4,0-2.8.6-3.6,1.7-1.8,3-1.8,6.7,0,9.7.9,1.1,2.2,1.8,3.6,1.7,1.4,0,2.8-.6,3.6-1.7Z"/>
  <path class="st1" d="M189.3,131h3.9l7.1,12.8v-12.8h3.5v18.5h-3.7l-7.3-13.1v13.1h-3.5v-18.5Z"/>
  <path class="st1" d="M216.8,132.9c1.4-1.5,3.5-2.4,5.5-2.3,3,0,5.1,1,6.5,3.1.7,1,1.2,2.2,1.2,3.5h-3.8c-.2-.7-.5-1.4-.9-2.1-1.5-1.6-4-1.7-5.6,0s-.4.4-.5.6c-.9,1.5-1.3,3.2-1.2,4.8,0,1.7.3,3.3,1.2,4.6.7,1,1.9,1.6,3.1,1.6s2.3-.4,3-1.3c.5-.7.8-1.4.9-2.2h3.8c-.2,1.9-1.1,3.7-2.5,4.9s-3.2,2-5,1.9c-2.3,0-4.5-.8-6-2.6-1.6-2-2.4-4.5-2.2-7,0-3.3.8-5.7,2.5-7.5h0Z"/>
  <path class="st1" d="M247.3,147.8c-3.4,2.9-8.4,2.9-11.7,0-1.8-1.8-2.8-4.2-2.8-7.6s.9-5.8,2.8-7.6c3.4-2.9,8.4-2.9,11.7,0,1.8,1.7,2.7,4.2,2.7,7.6s-.9,5.9-2.7,7.6ZM245,145c1.8-3,1.8-6.6,0-9.7-.8-1.1-2.2-1.8-3.6-1.7-1.4,0-2.8.6-3.6,1.7-1.8,3-1.8,6.7,0,9.7.9,1.1,2.2,1.8,3.6,1.7,1.4,0,2.7-.6,3.6-1.7Z"/>
  <path class="st1" d="M264.7,131.5c.7.3,1.2.7,1.7,1.3.4.5.7,1,.9,1.6s.3,1.3.3,2-.2,1.8-.6,2.6c-.4.9-1.2,1.5-2.1,1.8.7.3,1.4.8,1.8,1.5.4.9.6,1.9.5,2.9v3c0,.4.3.8.7,1.1v.5h-4c0-.4-.2-.8-.2-1,0-.5-.2-1.1-.2-1.6v-1.7c0-.8,0-1.7-.6-2.4-.6-.5-1.4-.7-2.2-.6h-3.7v7.3h-3.8v-18.6h8.6c1,0,2,0,2.9.5h0v-.2ZM257.1,134.2v4.9h4c.6,0,1.2,0,1.8-.3.8-.4,1.2-1.3,1.1-2.1,0-.9-.3-1.8-1-2.3-.5-.3-1.1-.4-1.8-.3h-4.1Z"/>
  <path class="st1" d="M283.7,141.5c-1.3,1-2.9,1.5-4.4,1.4h-3.8v6.7h-3.8v-18.5h7.7c1.6,0,3.1.4,4.2,1.4,1.2,1.2,1.7,2.8,1.6,4.4,0,2.2-.5,3.8-1.6,4.6h0ZM280.8,134.8c-.6-.5-1.3-.7-2-.6h-3.4v5.5h3.4c.7,0,1.4-.2,2-.7.5-.6.8-1.4.7-2.1,0-.8-.2-1.5-.7-2.1h0Z"/>
  <path class="st1" d="M302.5,147.8c-3.4,2.9-8.4,2.9-11.7,0-1.8-1.8-2.8-4.2-2.8-7.6s.9-5.8,2.8-7.6c3.4-2.9,8.4-2.9,11.7,0,1.8,1.7,2.7,4.2,2.7,7.6s-.9,5.9-2.7,7.6ZM300.2,145c1.8-3,1.8-6.6,0-9.7-.8-1.1-2.2-1.8-3.6-1.7-1.4,0-2.8.6-3.6,1.7-1.8,3-1.8,6.7,0,9.7.9,1.1,2.2,1.8,3.6,1.7,1.4,0,2.7-.6,3.6-1.7Z"/>
  <path class="st1" d="M320,131.5c.7.3,1.2.7,1.7,1.3.4.5.7,1,.9,1.6s.4,1.3.3,2c0,.9-.2,1.8-.6,2.6-.4.9-1.2,1.5-2.1,1.8.7.3,1.4.8,1.8,1.5.4.9.6,1.9.5,2.9v3c0,.4.3.8.7,1.1v.5h-4c0-.4-.2-.8-.2-1,0-.5-.2-1.1,0-1.6v-1.7c0-.8,0-1.7-.6-2.4-.6-.5-1.4-.7-2.2-.6h-3.7v7.3h-3.8v-18.6h8.6c1,0,1.9,0,2.8.5h0v-.2ZM312.3,134.2v4.9h4c.6,0,1.2,0,1.8-.3.8-.4,1.2-1.3,1.1-2.1,0-.9-.3-1.8-1-2.3-.5-.3-1.1-.4-1.8-.3h-4.1Z"/>
  <path class="st1" d="M332.1,131h4.2l6.3,18.5h-4l-1.2-3.9h-6.5l-1.2,3.9h-3.9l6.4-18.5h0ZM331.9,142.5h4.5l-2.3-7.3-2.4,7.3h.2Z"/>
  <path class="st1" d="M356.6,131v3.3h-5.4v15.2h-3.8v-15.2h-5.4v-3.3h14.6,0Z"/>
  <path class="st1" d="M362.6,149.5h-3.8v-18.5h3.8v18.5Z"/>
  <path class="st1" d="M380.3,147.8c-3.4,2.9-8.4,2.9-11.7,0-1.8-1.8-2.7-4.3-2.7-7.7s.9-5.9,2.8-7.6c3.4-2.9,8.4-2.9,11.7,0,1.8,1.7,2.8,4.2,2.8,7.6s-.9,5.9-2.8,7.7h0ZM378.1,145c1.8-3,1.8-6.6,0-9.7-.8-1.1-2.2-1.8-3.6-1.7-1.4,0-2.8.6-3.6,1.7-1.8,3-1.8,6.7,0,9.7.9,1.1,2.2,1.8,3.6,1.7,1.4,0,2.7-.6,3.6-1.7Z"/>
  <path class="st1" d="M386.3,131h3.9l7.1,12.8v-12.8h3.5v18.5h-3.8l-7.3-13.1v13.1h-3.5v-18.5h0Z"/>
  <g class="st0">
    <g class="st0">
      <path class="st1" d="M413.5,52v2h-3.4v9.4h-2.4v-9.4h-3.4v-2h9.2,0Z"/>
      <path class="st1" d="M417.1,63.4h-2.2v-11.4h3.5l2.1,8.9,2.1-8.9h3.4v11.4h-2.2v-9.5l-2.2,9.5h-2.3l-2.1-9.5v9.5h0Z"/>
    </g>
  </g>
</svg>