<svg width="98" height="40" viewBox="0 0 98 40" fill="none" xmlns="http://www.w3.org/2000/svg">
<path d="M50.3696 39.5429L50.3501 8.57989H43.4949V12.6275H46.2453V39.5429H50.3696Z" fill="white"/>
<path d="M8.51895 40C13.8666 40 16.5781 37.2327 16.5781 31.7753C16.5781 30.1728 16.4499 28.3307 15.4996 26.8245C14.6803 25.5249 13.4458 24.597 12.2476 23.7571C12.15 23.6883 7.70523 20.5713 7.70523 20.5713C4.91574 18.6026 4.51724 17.7352 4.51724 15.5655C4.51724 12.7322 5.65422 11.3527 7.98948 11.3527C10.7455 11.3527 11.9215 12.7294 11.9215 15.9565V17.2782H16.1127V16.8679C16.1127 14.0483 15.9678 13.0378 15.4133 11.9419C14.2178 9.44173 11.7432 8.1228 8.24864 8.1228C3.1434 8.1228 0.328831 10.9038 0.328831 15.9565C0.328831 19.6682 1.05059 20.9679 4.4002 23.2615L9.1989 26.5106C11.7042 28.2866 12.3897 29.4596 12.3897 31.9736C12.3897 34.1626 11.6958 36.7729 8.39076 36.7729C6.37319 36.7729 4.87394 35.7321 4.38627 33.9891C4.19677 33.0584 4.12989 32.7143 4.12989 30.3462V29.936H0V30.3462C0 33.3668 0.133762 34.5316 0.621435 35.7679C1.74448 38.6177 4.32775 40 8.51895 40Z" fill="white"/>
<path d="M47.817 0C46.407 0 45.2588 1.13169 45.2588 2.52495C45.2588 3.91822 46.407 5.04991 47.817 5.04991C49.2271 5.04991 50.3696 3.91822 50.3696 2.52495C50.3696 1.13169 49.2243 0 47.817 0Z" fill="white"/>
<path d="M70.2974 25.6378V25.7562C70.2723 26.9292 70.2444 28.3307 70.2194 29.936C70.1525 33.477 69.7818 34.5288 69.0294 35.4319C68.3662 36.2552 67.0704 36.7674 65.6547 36.7674H65.0723C63.6455 36.7674 62.3525 36.2552 61.6865 35.4319C60.9341 34.5316 60.5634 33.4797 60.4966 29.9387C60.4715 28.5179 60.4492 27.2596 60.4269 26.1775L60.4157 25.6405C60.4102 25.3459 60.4074 24.7016 60.4074 24.06C60.4074 23.4185 60.4102 22.7741 60.4157 22.4795L60.4269 21.8848C60.4464 20.8137 60.4715 19.5746 60.4938 18.1813C60.5606 14.6403 60.9313 13.5912 61.6809 12.6908C62.3469 11.8648 63.6344 11.3499 65.0389 11.3499H65.6436C67.076 11.3499 68.3634 11.8648 69.0322 12.6936C69.7818 13.5885 70.1525 14.6403 70.2194 18.1813C70.2472 19.7866 70.2723 21.1909 70.2974 22.3611V22.4795C70.3057 22.7741 70.3085 23.4185 70.3085 24.06C70.3085 24.7016 70.3057 25.3459 70.3002 25.6405M73.268 36.1864C73.8867 34.9666 74.2991 32.8822 74.3688 30.6106C74.3688 29.8864 74.3799 29.1733 74.3911 28.3445V28.2976C74.4106 27.0586 74.4273 25.803 74.4301 24.0655L74.5694 24.0573H74.4301C74.4273 22.3198 74.4106 21.0642 74.3911 19.8251V19.7783C74.3771 18.9468 74.3688 18.2364 74.3688 17.5067C74.2991 15.2378 73.8867 13.1534 73.268 11.9336C72.0084 9.44173 69.283 8.12556 65.3844 8.12556H65.3371C61.4301 8.12556 58.7047 9.44173 57.4451 11.9336C56.8265 13.1534 56.414 15.2378 56.3444 17.5095C56.3444 18.2474 56.3332 18.9743 56.3221 19.8251C56.3081 20.8357 56.2858 22.2207 56.2831 24.0573C56.2858 25.9021 56.3081 27.2871 56.3221 28.2976C56.336 29.1485 56.3444 29.8754 56.3444 30.6161C56.414 32.885 56.8265 34.9694 57.4451 36.1892C58.7047 38.6811 61.4301 39.9972 65.3287 39.9972H65.3789C69.283 39.9972 72.0056 38.6811 73.2652 36.1919" fill="white"/>
<path d="M38.4648 36.1864C39.0835 34.9666 39.4959 32.8822 39.5656 30.6106C39.5656 30.3876 39.5656 30.1618 39.5684 29.936L35.4468 29.9415C35.38 33.4494 34.9982 34.5068 34.2235 35.4347C33.5602 36.258 32.2644 36.7701 30.8488 36.7701H30.2664C28.8396 36.7701 27.5465 36.258 26.8805 35.4347C26.1281 34.5343 25.7603 33.4825 25.6906 29.9415C25.6655 28.4105 25.6404 27.0668 25.6181 25.9296L25.6126 25.6405C25.607 25.3459 25.6042 24.7016 25.6042 24.06C25.6042 23.4185 25.607 22.7741 25.6126 22.4795L25.6181 22.1794C25.6404 21.0449 25.6655 19.704 25.6906 18.1813C25.7575 14.6403 26.1281 13.5912 26.8777 12.6908C27.5438 11.8648 28.8312 11.3499 30.2357 11.3499H30.8404C32.2728 11.3499 33.5602 11.8648 34.2291 12.6936C34.9843 13.5967 35.38 14.6954 35.4468 18.1813C35.4468 18.1951 35.4468 18.2254 35.4468 18.2584H39.5684C39.5767 18.0987 39.574 17.9418 39.5684 17.7793C39.5684 17.6884 39.5628 17.5976 39.5628 17.5067C39.4931 15.2378 39.0807 13.1534 38.4621 11.9336C37.2025 9.44173 34.4771 8.12556 30.5785 8.12556H30.5283C26.6214 8.12556 23.896 9.44173 22.6364 11.9336C22.0177 13.1534 21.6053 15.2378 21.5356 17.5095C21.5356 18.2474 21.5245 18.9743 21.5133 19.8251C21.4966 20.9018 21.4799 22.2455 21.4743 24.0573V24.0903C21.4771 25.8938 21.4966 27.2265 21.5133 28.2976C21.5245 29.1485 21.5356 29.8754 21.5356 30.6161C21.6053 32.885 22.0177 34.9694 22.6364 36.1892C23.896 38.6811 26.6214 39.9972 30.5172 39.9972H30.5673C34.4715 39.9972 37.1969 38.6811 38.4565 36.1919" fill="white"/>
<path d="M88.8707 11.3471H89.442C90.7991 11.3471 92.0169 11.8345 92.6523 12.6193C93.3629 13.4701 93.7113 14.4641 93.7753 17.8123C93.7976 19.112 93.8199 20.2712 93.8394 21.2735L93.8506 21.8738C93.8562 22.1519 93.8589 22.7604 93.8589 23.3689V39.5402H98V17.3608C98.0028 14.1805 97.5876 12.3659 96.523 10.8846C95.1074 9.10305 93.0062 8.1228 90.6041 8.1228C87.3297 8.1228 85.5992 9.16913 84.7269 10.0475L84.49 10.2843V8.57988H80.349V39.5429H84.49L84.504 21.5764C84.5235 20.508 84.5486 19.2469 84.5736 17.8123C84.6377 14.4613 84.9861 13.4673 85.6995 12.6165C86.3293 11.8345 87.5499 11.3471 88.8791 11.3471" fill="white"/>
</svg>
