<?xml version="1.0" encoding="UTF-8"?>
<svg id="Layer_1" xmlns="http://www.w3.org/2000/svg" version="1.1" viewBox="0 0 1500 199">
  <!-- Generator: Adobe Illustrator 29.7.1, SVG Export Plug-In . SVG Version: 2.1.1 Build 8)  -->
  <defs>
    <style>
      .st0 {
        fill: #fff;
      }
    </style>
  </defs>
  <polygon class="st0" points="693.4 173.1 702.1 173.1 702.1 198 708.8 198 708.8 173.1 717.7 173.1 717.7 167.4 693.4 167.4 693.4 173.1"/>
  <rect class="st0" x="773.4" y="167.4" width="6.9" height="30.6"/>
  <polygon class="st0" points="836 173.1 844.7 173.1 844.7 198 851.8 198 851.8 173.1 860.5 173.1 860.5 167.4 836 167.4 836 173.1"/>
  <rect class="st0" x="1241.4" y="167.4" width="6.9" height="30.6"/>
  <path class="st0" d="M1482.8,189.1h-.4c-.4-.7-.6-1.1-.9-1.7-.4-.6-.7-.9-1.1-1.3-.4-.4-.7-.7-1.3-1.1-.6-.4-.9-.6-1.3-.7,1.1-.4,2-.7,2.8-1.3.9-.6,1.7-1.1,2.2-1.9.6-.7,1.1-1.5,1.5-2.4.4-.9.6-1.9.6-3,0-5.6-3.7-8.4-11.1-8.4h-11v30.6h6.9v-11.9h1.9c.4,0,.7,0,1.1.2.4.2.7.4,1.1.7.4.4.7.7.9,1.3.2.6.7.9,1.1,1.7l4.8,8h8l-5.7-9.1v.2ZM1476.3,179.8h-.2c-.9.9-2,1.3-3.5,1.3h-3v-8.5h3.2c3.2,0,4.8,1.3,4.8,4.1s-.4,2.4-1.3,3.2Z"/>
  <path class="st0" d="M564.7,179.2c0,.4-.4.7-.6,1.1-.2.4-.4.7-.6,1.3v-2.4l-2.4-11.7h-7.6l5.6,19.5-2.4,11h7.1l2.4-11.1,13.9-19.5h-7.8l-7.6,11.9Z"/>
  <path class="st0" d="M495.5,169.2h-.1c-.7-.4-1.6-.9-2.9-1.3-1.1-.4-2.6-.6-4.3-.6h-10.8l-6.5,30.6h12.3c2.2,0,4.1-.2,5.8-.7,1.7-.6,3-1.1,4.1-2,1.1-.9,1.9-1.9,2.4-3.2.6-1.3.7-2.4.7-3.9s0-1.5-.4-2.2c-.2-.7-.6-1.3-1.1-1.9-.6-.6-1.1-1.1-1.9-1.5-.7-.4-1.7-.6-2.6-.7,1.3-.4,2.2-.7,3.2-1.1s1.7-1.1,2.2-1.7c.6-.6,1.1-1.5,1.5-2.2.4-.7.6-1.7.6-2.6s0-1.9-.6-2.8c-.4-.9-.9-1.7-1.7-2.2ZM488.4,190.2c-.2.6-.6,1.1-1.1,1.5-.6.4-1.1.7-1.9.9-.7.2-1.7.4-2.8.4h-3.9l1.7-8.2h3.7c1.5,0,2.6.4,3.3.9.7.6,1.1,1.5,1.1,2.6s0,1.3-.4,1.9h.2ZM489.9,177.2c-.2.7-.6,1.1-1.1,1.5-.4.4-1.1.6-1.7.7-.6,0-1.5.4-2.2.4h-3.3l1.7-7.2h4.6c.4,0,.9.4,1.3.6.4.2.6.6.7.9,0,.4.2.9.2,1.3s0,1.1-.4,1.7v.2h.2Z"/>
  <path class="st0" d="M1092.7,167.5h-10.8v30.6h6.9v-10.6h3.3c3.7,0,6.7-.9,8.9-2.8,2.2-1.9,3.3-4.5,3.3-7.4,0-6.5-3.9-9.8-11.7-9.8ZM1091.8,182.4v-.2h-2.8v-9.5h2.8c3.7,0,5.6,1.7,5.6,4.8s-1.9,4.8-5.6,4.8Z"/>
  <path class="st0" d="M1017,188.5c-.6-.7-.9-1.7-1.5-2.6l-12.3-18.6h-7.4v30.6h6.5v-21.7c.4.6.7,1.5,1.5,2.6l12.6,19.1h7.1v-30.6h-6.5v21.2Z"/>
  <path class="st0" d="M1309.8,171.4c-3,3.2-4.6,7.1-4.6,11.9s1.3,8.4,4.1,11.1c2.8,2.8,6.5,4.1,11.1,4.1s6.5-.6,8.7-1.7v-6.3c-2.2,1.3-4.6,2-7.4,2s-5-.9-6.7-2.6c-1.7-1.9-2.6-4.1-2.6-7.1s.9-5.6,2.6-7.4c1.9-1.9,4.1-2.8,7.1-2.8s5,.6,7.1,1.9v-6.5c-2-.7-4.6-1.1-7.6-1.1-4.6,0-8.5,1.5-11.7,4.5Z"/>
  <polygon class="st0" points="1393.7 185.4 1403.7 185.4 1403.7 179.8 1393.7 179.8 1393.7 173.1 1404.4 173.1 1404.4 167.4 1386.8 167.4 1386.8 198 1405.2 198 1405.2 192.4 1393.7 192.4 1393.7 185.4"/>
  <path class="st0" d="M921.2,167.4l-11.1,30.6h7.6l2.2-6.9h11l2.2,6.9h7.6l-11-30.6h-8.5ZM921.2,185.9c0-.2,3.3-10.6,3.3-10.6.4-.9.4-1.9.6-2.6,0,1.1.2,2,.6,2.8l3.3,10.4h-7.8Z"/>
  <path class="st0" d="M1179.8,187.4v.2h-.4c-.4-.7-.7-1.1-1.1-1.5-.4-.4-.7-.7-1.3-1.1-.6-.4-.9-.6-1.3-.7,1.1-.4,2-.7,2.8-1.3.9-.6,1.7-1.1,2.2-1.9.6-.7,1.1-1.5,1.5-2.4.4-.9.6-1.9.6-3,0-5.6-3.7-8.4-11.1-8.4h-11v30.6h6.9v-11.9h1.9c.4,0,.7,0,1.1.2.4.2.7.4,1.1.7.4.4.7.7.9,1.3.2.6.7.9,1.1,1.7l4.8,8h8l-5.7-9.1c-.4-.6-.6-.9-.9-1.5ZM1174.2,179.8h-.2c-.9.9-2,1.3-3.5,1.3h-3v-8.5h3.2c3.2,0,4.8,1.3,4.8,4.1s-.4,2.4-1.3,3.2Z"/>
  <polygon class="st0" points="306.2 31.8 362.8 31.8 362.8 126.9 401.4 126.9 401.4 47.6 386.6 31.8 468.5 31.8 468.5 0 306.2 0 306.2 31.8"/>
  <polygon class="st0" points="1203.2 0 1180.2 0 1181.3 96 1093.3 96 1092.2 0 1071.9 0 1057.2 15.9 1057.2 104.3 1080.1 126.6 1195.5 126.6 1217.8 104.3 1217.8 15.9 1203.1 0 1203.2 0"/>
  <polygon class="st0" points="213.4 0 213.4 126.8 252 126.8 252 15.8 237.3 0 213.4 0"/>
  <polygon class="st0" points="0 31.8 56.7 31.8 56.7 126.9 95.3 126.9 95.3 47.6 80.5 31.8 162.4 31.8 162.4 0 0 0 0 31.8"/>
  <polygon class="st0" points="863.2 95.1 786.8 0 747.9 0 725.4 22.4 725.4 104.4 747.7 126.8 761.7 126.8 761.7 31.6 838 126.8 877.2 126.8 899.6 104.3 899.6 0 863.2 0 863.2 95.1"/>
  <polygon class="st0" points="1476.8 .2 1437.9 .2 1385.4 64.2 1333.2 .2 1294.3 .2 1271.2 25.2 1271.2 104.3 1295.2 126.7 1308.4 126.7 1308.4 32.2 1372.5 110.9 1398.3 110.9 1462.8 31.8 1462.8 126.7 1476 126.7 1500 104.3 1500 25.3 1476.8 .2"/>
  <polygon class="st0" points="997.8 15.8 983.2 0 959.2 0 959.2 126.8 997.8 126.8 997.8 15.8"/>
  <path class="st0" d="M531.9,0l-22.6,22.6v89.8c.1,0,14,14.3,14.2,14.5h22.3v-31.2h88v31.2h22.1l14.1-14.6V22.7l-22.7-22.7h-115.4ZM637.6,54.6l-9.2,9.6h-77.6l-9.3-9.7v-13.2l9.3-9.7h77.7l9.1,9.6v13.4Z"/>
</svg>