<svg version="1.2" xmlns="http://www.w3.org/2000/svg" viewBox="0 0 1586 304" width="1586" height="304">
	<title>usc-logo-svg</title>
	<style>
		.s0 { fill: #0033a1 } 
		.s1 { fill: #f32735 } 
	</style>
	<g id="Layer">
		<g id="Layer">
			<path id="Layer" class="s0" d="m118.2 199.2l-20.2 61.9c-6.1 18.9-26.5 29.7-45.7 24.3l32.2-99.1h-35.8c-19.9 0-36.5-16.1-37.2-35.9h71.4c3.8 0 7.7 0.5 11.5 1.8 7.3 2.5 14 7.3 18.6 13.6 7 9.6 9 22.1 5.2 33.4zm127.9 77.6c1.4 9.3-0.6 18.8-5.9 26.7l-83-60.1-1.4-1.1-11.1 34c-3.2 9.5-9.7 17.1-18.6 21.6-8.4 4.3-18.1 5.4-27.2 2.7l22-67.8c1.2-3.7 3-7.1 5.4-10.3 4.6-6.5 11.2-11.3 18.6-13.6 11.3-3.6 23.8-1.6 33.5 5.3l52.6 38.3c8.1 5.9 13.5 14.5 15.1 24.3zm58.2-154.1l-82.9 60.1-1.5 1 29 21.1c8.1 5.9 13.3 14.5 14.9 24.4 1.4 9.3-0.5 18.7-5.9 26.6l-57.7-41.8c-3.2-2.4-5.9-5.1-8.2-8.3-4.7-6.2-7.2-14.1-7.2-21.8 0-12 5.8-23.2 15.4-30.2l52.7-38.3c6.4-4.6 14-7.1 21.8-7.1q3 0 5.9 0.5c9.5 1.6 17.8 6.4 23.7 13.8zm-166.6-76.2c-3-9.5-2.1-19.5 2.4-28.4 4.3-8.4 11.4-14.9 20.4-18.1l32.2 99.2 29-21.1c8.1-5.7 17.9-8.2 27.8-6.6 9.3 1.5 17.5 6.3 23.4 13.8l-57.6 41.8c-3.1 2.2-6.7 4-10.4 5.2-7.5 2.4-15.8 2.4-23.1 0-11.3-3.7-20.3-12.7-24-23.9zm-137.7 55h104.2l-11.1-33.9c-6.1-19 4.1-39.7 22.7-46.5l22.2 67.9c1.3 3.6 1.8 7.5 1.8 11.5 0 7.7-2.5 15.5-7.1 21.8-7.2 9.6-18.5 15.4-30.3 15.4h-65.2c-19.9 0-36.5-16.1-37.2-36.2z"/>
		</g>
		<g id="Layer">
			<path id="Layer" class="s1" d="m457.1 232.5l0.1-0.2v-108.9h35.1v160.4h-30.9l-1.1-20.2-0.9 0.9c-9.7 10.5-30.5 23-57 23-34.9 0-57.5-25.5-57.5-65.2v-98.9h35.5v94.8c0 23.6 13.3 38.8 34 38.8 14.7 0 31.9-9.9 42.7-24.5zm129.3-40.8c36.9 8.2 52.4 21.5 52.4 48.6 0 27.2-24 47.4-67.3 47.4-32.4 0-57.3-13.4-57.3-13.4 0 0 0-31.1 0-34 3.2 1.8 26.1 17 61.1 18.1 14.8 0.4 28.6-4.3 28.6-18.1 0-17.7-22-19.1-55-31.3-29.3-10.9-37.4-26.8-37.4-43.1 0-27.1 25.3-47.3 67.2-47.3 18.2 0 38.6 4.4 50.3 10.5v30.1c-14.3-9-34.6-12.2-49.8-12.2-26.9 0-32.4 10-32.4 18.9 0 9 3 17.4 39.6 25.8z"/>
		</g>
	</g>
	<g id="Layer">
		<path id="Layer" fill-rule="evenodd" class="s0" d="m1585.2 123.4v35.9c-6.8-2.5-21.3-5.2-36 0.9-14 5.6-24.6 17.6-31.9 35.4v88.2h-35.5v-160.4h32.8l2.5 35.2 0.9-1.2c16.7-26.9 40.5-38.8 67.2-34zm-615.4-75.8h35.5v236.2h-35.5zm59.6 0h35.5v236.2h-35.5zm221.6 0h35.4v236.2h-35.4zm185.7 91.6c14.2 14.1 21.3 35.2 21.3 62.6v82.2h-30.4l-2.2-29.3-0.9 1.3c-12.1 20-35.6 31.8-62.8 31.8-35.5 0-60.4-22-60.4-53.5 0-16.1 6.6-29.8 19.4-39.7 12-9.3 29.1-14.4 48.1-14.4 20.8 0 39.4 5.3 52.7 15.2l0.9 0.5v-1.1c-0.2-31.6-17.7-47.6-52.1-47.6-17.4 0-38.4 4.7-55.2 12.2v-28.8c15.2-8.2 43.5-12 64.8-12 24.2 0 43.2 7 56.8 20.6zm-14.9 80.7l-0.3-0.2c-12-9.5-29.6-15-46.9-15-23.5 0-38.2 10.5-38.2 27.3 0 16.1 14 26.8 34.8 26.8 21.3 0 42.9-16.6 50.5-38.6zm-225.5 12.7v-109.1h35.1v160.4h-31l-0.9-20.2-0.9 0.9c-9.7 10.6-30.4 23.1-56.9 23.1-35 0-57.5-25.6-57.5-65.3v-98.9h35.4v94.8c0 23.6 13.3 38.8 34.1 38.8 14.8 0 31.8-9.8 42.6-24.5zm-265.3-90.8c12.8 15.3 19.4 37.9 19.4 65.2 0 3.8-0.2 7.7-0.6 10h-117.8l0.2 0.6c4.8 25 22.5 39.3 48.7 39.3 12.5 0 34.6-4.8 43.7-11.1l13.8 25.1c-13.4 9.8-37.1 16.8-57.5 16.8-23.6 0-45-7.9-60-22-16.1-15.2-24.7-37.2-24.7-63.3 0-24.5 7.3-45.3 21.5-60.3 14.3-15.4 34.9-23.4 59.3-23.4 22.7 0 41.3 8 54 23.1zm-13.9 50.7v-0.5c-2.2-28.1-16.3-43.4-40.1-43.4-26.6 0-43.6 15.7-46.4 43.4v0.5zm-136.7 53.3l14.9 25.1c-16 11.1-34.6 16.8-54.3 16.8-62.5 0-91-43.8-91-84.6 0-58.1 47.1-84.6 91-84.6 19.5 0 38.2 5.7 53.9 16.6l-14.5 24.4c-9.7-6.5-25.6-11.1-39.4-11.1-15 0-29 5.3-39.2 15-10.6 9.8-16.3 24-16.3 39.3 0 31.2 23.8 54.4 55.5 54.4 12.7 0 29.6-4.8 39.4-11.3zm764.4 22.4v-3.2h16.3v3.2h-6.3v15.7h-3.7v-15.7zm24.9-3.2l4.8 13.6 4.8-13.6h5.4v18.9h-3.4v-15.4l-5.2 15.4h-3l-5.4-15.4v15.4h-3.4v-18.9z"/>
	</g>
</svg>